ayuta-regular.ufo
<glyph name="uni0000" format="2">
  <advance width="1024"/>
  <unicode hex="0000"/>
  <outline>
    <contour>
      <point x="43" y="-1" type="line"/>
      <point x="991" y="-1" type="line"/>
      <point x="991" y="1589" type="line"/>
      <point x="43" y="1589" type="line"/>
    </contour>
    <contour>
      <point x="97" y="120" type="line"/>
      <point x="115" y="1445" type="line"/>
      <point x="436" y="785" type="line"/>
    </contour>
    <contour>
      <point x="197" y="97" type="line"/>
      <point x="519" y="707" type="line"/>
      <point x="835" y="97" type="line"/>
    </contour>
    <contour>
      <point x="221" y="1460" type="line"/>
      <point x="814" y="1460" type="line"/>
      <point x="524.822" y="841.813" type="line"/>
    </contour>
    <contour>
      <point x="592" y="790" type="line"/>
      <point x="928" y="1448" type="line"/>
      <point x="927" y="168" type="line"/>
    </contour>
  </outline>
</glyph>
<glyph name="exclam" format="2">
  <advance width="1024"/>
  <unicode hex="0021"/>
  <outline>
    <contour>
      <point x="465" y="240" type="line"/>
      <point x="465" y="42" type="line"/>
      <point x="559" y="42" type="line"/>
      <point x="559" y="240" type="line"/>
    </contour>
    <contour>
      <point x="475" y="1495" type="line"/>
      <point x="475" y="527" type="line"/>
      <point x="553" y="527" type="line"/>
      <point x="553" y="1495" type="line"/>
    </contour>
  </outline>
</glyph>
<glyph name="quotedbl" format="2">
  <advance width="1024"/>
  <unicode hex="0022"/>
  <outline>
    <contour>
      <point x="265" y="1549" type="line"/>
      <point x="265" y="1351" type="line"/>
      <point x="359" y="1351" type="line"/>
      <point x="359" y="1549" type="line"/>
    </contour>
    <contour>
      <point x="665" y="1549" type="line"/>
      <point x="665" y="1351" type="line"/>
      <point x="759" y="1351" type="line"/>
      <point x="759" y="1549" type="line"/>
    </contour>
  </outline>
</glyph>
<glyph name="numbersign" format="2">
  <advance width="1024"/>
  <unicode hex="0023"/>
  <outline>
    <contour>
      <point x="343" y="1322" type="line"/>
      <point x="253" y="1322" type="line"/>
      <point x="253" y="338" type="line"/>
      <point x="343" y="338" type="line"/>
    </contour>
    <contour>
      <point x="781" y="1325" type="line"/>
      <point x="663" y="1325" type="line"/>
      <point x="663" y="304" type="line"/>
      <point x="781" y="304" type="line"/>
    </contour>
    <contour>
      <point x="891" y="1132" type="line"/>
      <point x="123" y="1132" type="line"/>
      <point x="123" y="1035" type="line"/>
      <point x="891" y="1035" type="line"/>
    </contour>
    <contour>
      <point x="901" y="742" type="line"/>
      <point x="123" y="742" type="line"/>
      <point x="123" y="617" type="line"/>
      <point x="901" y="617" type="line"/>
    </contour>
  </outline>
</glyph>
<glyph name="dollar" format="2">
  <advance width="1124"/>
  <unicode hex="0024"/>
  <outline>
    <contour>
      <point x="724" y="1487" type="line"/>
      <point x="126" y="1487" type="line"/>
      <point x="126" y="1358" type="line"/>
      <point x="724" y="1358" type="line"/>
    </contour>
    <contour>
      <point x="281" y="1492" type="line"/>
      <point x="126" y="1492" type="line"/>
      <point x="126" y="1053" type="line"/>
      <point x="281" y="1053" type="line"/>
    </contour>
    <contour>
      <point x="862" y="163" type="line"/>
      <point x="154" y="163" type="line"/>
      <point x="154" y="50" type="line"/>
      <point x="862" y="50" type="line"/>
    </contour>
    <contour>
      <point x="742" y="330" type="line"/>
      <point x="742" y="50" type="line"/>
      <point x="898" y="50" type="line"/>
      <point x="898" y="330" type="line"/>
    </contour>
    <contour>
      <point x="294.378" y="1003" type="line"/>
      <point x="154.686" y="1003" type="line"/>
      <point x="728.635" y="380" type="line"/>
      <point x="869.253" y="380" type="line"/>
    </contour>
    <contour>
      <point x="587.45" y="1586" type="line"/>
      <point x="387.872" y="1586" type="line"/>
      <point x="387.872" y="-165" type="line"/>
      <point x="587.45" y="-165" type="line"/>
    </contour>
  </outline>
</glyph>
<glyph name="percent" format="2">
  <advance width="1124"/>
  <unicode hex="0025"/>
  <outline>
    <contour>
      <point x="905.572" y="826.454" type="line"/>
      <point x="78" y="507.498" type="line"/>
      <point x="107.405" y="410.594" type="line"/>
      <point x="934.903" y="730.463" type="line"/>
    </contour>
    <contour>
      <point x="240.469" y="1098" type="line"/>
      <point x="212.469" y="1098" type="line"/>
      <point x="212.469" y="847" type="line"/>
      <point x="240.469" y="847" type="line"/>
    </contour>
    <contour>
      <point x="540.069" y="1102" type="line"/>
      <point x="212.469" y="1102" type="line"/>
      <point x="212.469" y="1057" type="line"/>
      <point x="540.069" y="1057" type="line"/>
    </contour>
    <contour>
      <point x="535.435" y="846" type="line"/>
      <point x="212.469" y="846" type="line"/>
      <point x="212.469" y="814" type="line"/>
      <point x="535.435" y="814" type="line"/>
    </contour>
    <contour>
      <point x="540.069" y="1102" type="line"/>
      <point x="491.41" y="1102" type="line"/>
      <point x="491.41" y="816" type="line"/>
      <point x="540.069" y="816" type="line"/>
    </contour>
    <contour>
      <point x="607.264" y="411" type="line"/>
      <point x="574.825" y="411" type="line"/>
      <point x="574.825" y="160" type="line"/>
      <point x="607.264" y="160" type="line"/>
    </contour>
    <contour>
      <point x="886.469" y="415" type="line"/>
      <point x="574.825" y="415" type="line"/>
      <point x="574.825" y="370" type="line"/>
      <point x="886.469" y="370" type="line"/>
    </contour>
    <contour>
      <point x="884.469" y="159" type="line"/>
      <point x="574.825" y="159" type="line"/>
      <point x="574.825" y="127" type="line"/>
      <point x="884.469" y="127" type="line"/>
    </contour>
    <contour>
      <point x="886.469" y="415" type="line"/>
      <point x="844.469" y="415" type="line"/>
      <point x="844.469" y="129" type="line"/>
      <point x="886.469" y="129" type="line"/>
    </contour>
  </outline>
</glyph>
<glyph name="ampersand" format="2">
  <advance width="1024"/>
  <unicode hex="0026"/>
  <outline>
    <contour>
      <point x="403.245" y="1512" type="line"/>
      <point x="293.406" y="1512" type="line"/>
      <point x="724.894" y="43.207" type="line"/>
      <point x="823.055" y="72.79" type="line"/>
    </contour>
    <contour>
      <point x="363" y="1426" type="line"/>
      <point x="779" y="1426" type="line"/>
      <point x="779" y="1512" type="line"/>
      <point x="363" y="1512" type="line"/>
    </contour>
    <contour>
      <point x="779" y="1421" type="line"/>
      <point x="669" y="1421" type="line"/>
      <point x="669" y="942" type="line"/>
      <point x="779" y="942" type="line"/>
    </contour>
    <contour>
      <point x="779" y="1020" type="line"/>
      <point x="133" y="1020" type="line"/>
      <point x="133" y="868" type="line"/>
      <point x="779" y="868" type="line"/>
    </contour>
    <contour>
      <point x="293" y="1020" type="line"/>
      <point x="133" y="1020" type="line"/>
      <point x="133" y="49" type="line"/>
      <point x="293" y="49" type="line"/>
    </contour>
    <contour>
      <point x="891" y="165" type="line"/>
      <point x="133" y="165" type="line"/>
      <point x="133" y="31" type="line"/>
      <point x="891" y="31" type="line"/>
    </contour>
  </outline>
</glyph>
<glyph name="quotesingle" format="2">
  <advance width="1024"/>
  <unicode hex="0027"/>
  <outline>
    <contour>
      <point x="552" y="1471" type="line"/>
      <point x="472" y="1471" type="line"/>
      <point x="472" y="1289" type="line"/>
      <point x="552" y="1289" type="line"/>
    </contour>
  </outline>
</glyph>
<glyph name="parenleft" format="2">
  <advance width="1024"/>
  <unicode hex="0028"/>
  <outline>
    <contour>
      <point x="349" y="998" type="line"/>
      <point x="349" y="204" type="line"/>
      <point x="489" y="204" type="line"/>
      <point x="489" y="998" type="line"/>
    </contour>
    <contour>
      <point x="625" y="1537" type="line"/>
      <point x="349" y="996" type="line"/>
      <point x="490" y="994" type="line"/>
    </contour>
    <contour>
      <point x="349" y="203" type="line"/>
      <point x="646.403" y="-319.951" type="line"/>
      <point x="489" y="204" type="line"/>
    </contour>
  </outline>
</glyph>
<glyph name="parenright" format="2">
  <advance width="1024"/>
  <unicode hex="0029"/>
  <outline>
    <contour>
      <point x="653" y="998" type="line"/>
      <point x="513" y="998" type="line"/>
      <point x="513" y="204" type="line"/>
      <point x="653" y="204" type="line"/>
    </contour>
    <contour>
      <point x="638.082" y="1048" type="line"/>
      <point x="386.135" y="1567.32" type="line"/>
      <point x="507.824" y="1048" type="line"/>
    </contour>
    <contour>
      <point x="636.833" y="154" type="line"/>
      <point x="507.662" y="154" type="line"/>
      <point x="394.439" y="-312.448" type="line"/>
    </contour>
  </outline>
</glyph>
<glyph name="asterisk" format="2">
  <advance width="1024"/>
  <unicode hex="002A"/>
  <outline>
    <contour>
      <point x="627" y="1272" type="line"/>
      <point x="447" y="1272" type="line"/>
      <point x="447" y="325" type="line"/>
      <point x="627" y="325" type="line"/>
    </contour>
    <contour>
      <point x="219.183" y="1206.35" type="line"/>
      <point x="100.995" y="1098.08" type="line"/>
      <point x="793.986" y="394.616" type="line"/>
      <point x="915.821" y="504.957" type="line"/>
    </contour>
    <contour>
      <point x="924.114" y="1079.85" type="line"/>
      <point x="816.132" y="1196.19" type="line"/>
      <point x="128.886" y="524.155" type="line"/>
      <point x="236.868" y="407.808" type="line"/>
    </contour>
  </outline>
</glyph>
<glyph name="plus" format="2">
  <advance width="1024"/>
  <unicode hex="002B"/>
  <outline>
    <contour>
      <point x="584" y="1196" type="line"/>
      <point x="409" y="1196" type="line"/>
      <point x="409" y="190" type="line"/>
      <point x="584" y="190" type="line"/>
    </contour>
    <contour>
      <point x="938" y="796" type="line"/>
      <point x="86" y="796" type="line"/>
      <point x="86" y="638" type="line"/>
      <point x="938" y="638" type="line"/>
    </contour>
  </outline>
</glyph>
<glyph name="comma" format="2">
  <advance width="1024"/>
  <unicode hex="002C"/>
  <outline>
    <contour>
      <point x="621" y="212" type="line"/>
      <point x="423" y="212" type="line"/>
      <point x="423" y="33" type="line"/>
      <point x="621" y="33" type="line"/>
    </contour>
    <contour>
      <point x="612.127" y="-4.7582" type="line"/>
      <point x="505.336" y="92.6523" type="line"/>
      <point x="410.761" y="-132.563" type="line"/>
      <point x="511.562" y="-174.563" type="line"/>
    </contour>
  </outline>
</glyph>
<glyph name="hyphen" format="2">
  <advance width="1024"/>
  <unicode hex="002D"/>
  <outline>
    <contour>
      <point x="900" y="783" type="line"/>
      <point x="124" y="783" type="line"/>
      <point x="124" y="625" type="line"/>
      <point x="900" y="625" type="line"/>
    </contour>
  </outline>
</glyph>
<glyph name="period" format="2">
  <advance width="1024"/>
  <unicode hex="002E"/>
  <outline>
    <contour>
      <point x="619" y="221" type="line"/>
      <point x="405" y="221" type="line"/>
      <point x="405" y="25" type="line"/>
      <point x="619" y="25" type="line"/>
    </contour>
  </outline>
</glyph>
<glyph name="slash" format="2">
  <advance width="1024"/>
  <unicode hex="002F"/>
  <outline>
    <contour>
      <point x="858.689" y="1395.72" type="line"/>
      <point x="717.306" y="1450.62" type="line"/>
      <point x="165.311" y="20.2767" type="line"/>
      <point x="306.694" y="-34.6217" type="line"/>
    </contour>
  </outline>
</glyph>
<glyph name="zero" format="2">
  <advance width="1124"/>
  <unicode hex="0030"/>
  <outline>
    <contour>
      <point x="365.933" y="683" type="line"/>
      <point x="365.933" y="933" type="line"/>
      <point x="659.406" y="933" type="line"/>
      <point x="659.406" y="683" type="line"/>
    </contour>
    <contour>
      <point x="245" y="183" type="line"/>
      <point x="245" y="1384" type="line"/>
      <point x="780" y="1384" type="line"/>
      <point x="780" y="183" type="line"/>
    </contour>
    <contour>
      <point x="930" y="32" type="line"/>
      <point x="930" y="1534" type="line"/>
      <point x="93" y="1534" type="line"/>
      <point x="93" y="32" type="line"/>
    </contour>
  </outline>
</glyph>
<glyph name="one" format="2">
  <advance width="1074"/>
  <unicode hex="0031"/>
  <outline>
    <contour>
      <point x="402.301" y="1498" type="line"/>
      <point x="402.301" y="50" type="line"/>
      <point x="551.301" y="50" type="line"/>
      <point x="551.301" y="1498" type="line"/>
    </contour>
    <contour>
      <point x="496.57" y="1421.1" type="line"/>
      <point x="388.266" y="1492.59" type="line"/>
      <point x="218" y="1238.11" type="line"/>
      <point x="326.368" y="1165.87" type="line"/>
    </contour>
  </outline>
</glyph>
<glyph name="two" format="2">
  <advance width="1124"/>
  <unicode hex="0032"/>
  <outline>
    <contour>
      <point x="109" y="1498" type="line"/>
      <point x="109" y="1344" type="line"/>
      <point x="768" y="1344" type="line"/>
      <point x="768" y="883" type="line"/>
      <point x="116" y="883" type="line"/>
      <point x="116" y="50" type="line"/>
      <point x="904" y="50" type="line"/>
      <point x="904" y="200" type="line"/>
      <point x="269" y="200" type="line"/>
      <point x="269" y="732" type="line"/>
      <point x="918" y="732" type="line"/>
      <point x="918" y="1498" type="line"/>
    </contour>
  </outline>
</glyph>
<glyph name="three" format="2">
  <advance width="1124"/>
  <unicode hex="0033"/>
  <outline>
    <contour>
      <point x="101" y="911" type="line"/>
      <point x="101" y="761" type="line"/>
      <point x="809" y="761" type="line"/>
      <point x="809" y="192" type="line"/>
      <point x="59" y="192" type="line"/>
      <point x="59" y="42" type="line"/>
      <point x="963" y="42" type="line"/>
      <point x="963" y="1503" type="line"/>
      <point x="89" y="1503" type="line"/>
      <point x="89" y="1353" type="line"/>
      <point x="807" y="1353" type="line"/>
      <point x="807" y="911" type="line"/>
    </contour>
  </outline>
</glyph>
<glyph name="four" format="2">
  <advance width="1124"/>
  <unicode hex="0034"/>
  <outline>
    <contour>
      <point x="91" y="1498" type="line"/>
      <point x="91" y="786" type="line"/>
      <point x="783" y="786" type="line"/>
      <point x="783" y="57" type="line"/>
      <point x="929" y="57" type="line"/>
      <point x="929" y="1498" type="line"/>
      <point x="780" y="1498" type="line"/>
      <point x="780" y="936" type="line"/>
      <point x="241" y="936" type="line"/>
      <point x="241" y="1498" type="line"/>
    </contour>
  </outline>
</glyph>
<glyph name="five" format="2">
  <advance width="1124"/>
  <unicode hex="0035"/>
  <outline>
    <contour>
      <point x="822" y="784" type="line"/>
      <point x="822" y="198" type="line"/>
      <point x="59" y="198" type="line"/>
      <point x="59" y="50" type="line"/>
      <point x="977" y="50" type="line"/>
      <point x="977" y="934" type="line"/>
      <point x="210" y="934" type="line"/>
      <point x="210" y="1352" type="line"/>
      <point x="987" y="1352" type="line"/>
      <point x="987" y="1498" type="line"/>
      <point x="60" y="1498" type="line"/>
      <point x="60" y="784" type="line"/>
    </contour>
  </outline>
</glyph>
<glyph name="six" format="2">
  <advance width="1124"/>
  <unicode hex="0036"/>
  <outline>
    <contour>
      <point x="985" y="1498" type="line"/>
      <point x="41" y="1498" type="line"/>
      <point x="41" y="50" type="line"/>
      <point x="980" y="50" type="line"/>
      <point x="980" y="934" type="line"/>
      <point x="194" y="934" type="line"/>
      <point x="194" y="1348" type="line"/>
      <point x="985" y="1348" type="line"/>
    </contour>
    <contour>
      <point x="822" y="784" type="line"/>
      <point x="822" y="203" type="line"/>
      <point x="200" y="203" type="line"/>
      <point x="200" y="784" type="line"/>
    </contour>
  </outline>
</glyph>
<glyph name="seven" format="2">
  <advance width="1124"/>
  <unicode hex="0037"/>
  <outline>
    <contour>
      <point x="54" y="1507" type="line"/>
      <point x="54" y="1355" type="line"/>
      <point x="814" y="1355" type="line"/>
      <point x="814" y="50" type="line"/>
      <point x="967" y="50" type="line"/>
      <point x="967" y="1507" type="line"/>
    </contour>
  </outline>
</glyph>
<glyph name="eight" format="2">
  <advance width="1124"/>
  <unicode hex="0038"/>
  <outline>
    <contour>
      <point x="969" y="1498" type="line"/>
      <point x="56" y="1498" type="line"/>
      <point x="56" y="50" type="line"/>
      <point x="969" y="50" type="line"/>
    </contour>
    <contour>
      <point x="817" y="784" type="line"/>
      <point x="817" y="197" type="line"/>
      <point x="210" y="197" type="line"/>
      <point x="210" y="784" type="line"/>
    </contour>
    <contour>
      <point x="818" y="934" type="line"/>
      <point x="210" y="934" type="line"/>
      <point x="210" y="1350" type="line"/>
      <point x="818" y="1350" type="line"/>
    </contour>
  </outline>
</glyph>
<glyph name="nine" format="2">
  <advance width="1124"/>
  <unicode hex="0039"/>
  <outline>
    <contour>
      <point x="831" y="784" type="line"/>
      <point x="831" y="200" type="line"/>
      <point x="79" y="200" type="line"/>
      <point x="79" y="50" type="line"/>
      <point x="977" y="50" type="line"/>
      <point x="977" y="1504" type="line"/>
      <point x="57" y="1504" type="line"/>
      <point x="57" y="784" type="line"/>
    </contour>
    <contour>
      <point x="828" y="934" type="line"/>
      <point x="207" y="934" type="line"/>
      <point x="207" y="1354" type="line"/>
      <point x="828" y="1354" type="line"/>
    </contour>
  </outline>
</glyph>
<glyph name="colon" format="2">
  <advance width="1024"/>
  <unicode hex="003A"/>
  <outline>
    <contour>
      <point x="623" y="405" type="line"/>
      <point x="425" y="405" type="line"/>
      <point x="425" y="226" type="line"/>
      <point x="623" y="226" type="line"/>
    </contour>
    <contour>
      <point x="617" y="1269" type="line"/>
      <point x="401" y="1269" type="line"/>
      <point x="401" y="1072" type="line"/>
      <point x="617" y="1072" type="line"/>
    </contour>
  </outline>
</glyph>
<glyph name="semicolon" format="2">
  <advance width="1024"/>
  <unicode hex="003B"/>
  <outline>
    <contour>
      <point x="623" y="405" type="line"/>
      <point x="425" y="405" type="line"/>
      <point x="425" y="226" type="line"/>
      <point x="623" y="226" type="line"/>
    </contour>
    <contour>
      <point x="614.099" y="191.856" type="line"/>
      <point x="507.551" y="286.165" type="line"/>
      <point x="412.761" y="60.4369" type="line"/>
      <point x="513.392" y="18.5077" type="line"/>
    </contour>
    <contour>
      <point x="617" y="846" type="line"/>
      <point x="401" y="846" type="line"/>
      <point x="401" y="649" type="line"/>
      <point x="617" y="649" type="line"/>
    </contour>
  </outline>
</glyph>
<glyph name="less" format="2">
  <advance width="1024"/>
  <unicode hex="003C"/>
  <outline>
    <contour>
      <point x="896" y="979.763" type="line"/>
      <point x="128" y="758.188" type="line"/>
      <point x="128" y="602.316" type="line"/>
      <point x="896" y="825.768" type="line"/>
    </contour>
    <contour>
      <point x="894" y="304.362" type="line"/>
      <point x="128" y="734.299" type="line"/>
      <point x="128" y="583.812" type="line"/>
      <point x="894" y="164.201" type="line"/>
    </contour>
  </outline>
</glyph>
<glyph name="equal" format="2">
  <advance width="1024"/>
  <unicode hex="003D"/>
  <outline>
    <contour>
      <point x="895" y="889" type="line"/>
      <point x="129" y="889" type="line"/>
      <point x="129" y="749" type="line"/>
      <point x="895" y="749" type="line"/>
    </contour>
    <contour>
      <point x="895" y="515" type="line"/>
      <point x="129" y="515" type="line"/>
      <point x="129" y="375" type="line"/>
      <point x="895" y="375" type="line"/>
    </contour>
  </outline>
</glyph>
<glyph name="greater" format="2">
  <advance width="1024"/>
  <unicode hex="003E"/>
  <outline>
    <contour>
      <point x="898.679" y="601.38" type="line"/>
      <point x="897.18" y="758.111" type="line"/>
      <point x="125" y="979.807" type="line"/>
      <point x="125" y="825.784" type="line"/>
    </contour>
    <contour>
      <point x="898.857" y="582.802" type="line"/>
      <point x="897.404" y="734.626" type="line"/>
      <point x="127" y="304.327" type="line"/>
      <point x="127" y="164.009" type="line"/>
    </contour>
  </outline>
</glyph>
<glyph name="question" format="2">
  <advance width="1024"/>
  <unicode hex="003F"/>
  <outline>
    <contour>
      <point x="589" y="222" type="line"/>
      <point x="393" y="222" type="line"/>
      <point x="393" y="25" type="line"/>
      <point x="589" y="25" type="line"/>
    </contour>
    <contour>
      <point x="803" y="1494" type="line"/>
      <point x="217" y="1494" type="line"/>
      <point x="217" y="1358" type="line"/>
      <point x="803" y="1358" type="line"/>
    </contour>
    <contour>
      <point x="807" y="1489" type="line"/>
      <point x="663" y="1489" type="line"/>
      <point x="663" y="991" type="line"/>
      <point x="807" y="991" type="line"/>
    </contour>
    <contour>
      <point x="807" y="990" type="line"/>
      <point x="393" y="990" type="line"/>
      <point x="393" y="841" type="line"/>
      <point x="807" y="841" type="line"/>
    </contour>
    <contour>
      <point x="591" y="986" type="line"/>
      <point x="393" y="986" type="line"/>
      <point x="393" y="417" type="line"/>
      <point x="591" y="417" type="line"/>
    </contour>
  </outline>
</glyph>
<glyph name="at" format="2">
  <advance width="1024"/>
  <unicode hex="0040"/>
  <outline>
    <contour>
      <point x="895" y="998" type="line"/>
      <point x="126" y="998" type="line"/>
      <point x="126" y="904" type="line"/>
      <point x="895" y="904" type="line"/>
    </contour>
    <contour>
      <point x="765" y="567" type="line"/>
      <point x="662" y="567" type="line"/>
      <point x="662" y="25" type="line"/>
      <point x="765" y="25" type="line"/>
    </contour>
    <contour>
      <point x="704" y="575" type="line"/>
      <point x="329" y="575" type="line"/>
      <point x="329" y="469" type="line"/>
      <point x="704" y="469" type="line"/>
    </contour>
    <contour>
      <point x="450" y="564" type="line"/>
      <point x="326" y="564" type="line"/>
      <point x="326" y="37" type="line"/>
      <point x="450" y="37" type="line"/>
    </contour>
    <contour>
      <point x="768" y="163" type="line"/>
      <point x="324" y="163" type="line"/>
      <point x="324" y="25" type="line"/>
      <point x="768" y="25" type="line"/>
    </contour>
    <contour>
      <point x="164" y="998" type="line"/>
      <point x="38" y="998" type="line"/>
      <point x="38" y="-198" type="line"/>
      <point x="164" y="-198" type="line"/>
    </contour>
    <contour>
      <point x="934" y="-111" type="line"/>
      <point x="36" y="-111" type="line"/>
      <point x="36" y="-233" type="line"/>
      <point x="934" y="-233" type="line"/>
    </contour>
    <contour>
      <point x="988" y="986" type="line"/>
      <point x="887" y="986" type="line"/>
      <point x="887" y="25" type="line"/>
      <point x="988" y="25" type="line"/>
    </contour>
    <contour>
      <point x="918" y="150" type="line"/>
      <point x="759" y="150" type="line"/>
      <point x="759" y="25" type="line"/>
      <point x="918" y="25" type="line"/>
    </contour>
  </outline>
</glyph>
<glyph name="A" format="2">
  <advance width="1024"/>
  <unicode hex="0041"/>
  <outline>
    <contour>
      <point x="125" y="1" type="line"/>
      <point x="274" y="1" type="line"/>
      <point x="274" y="1498" type="line"/>
      <point x="125" y="1498" type="line"/>
    </contour>
    <contour>
      <point x="186" y="1332" type="line"/>
      <point x="847" y="1332" type="line"/>
      <point x="847" y="1498" type="line"/>
      <point x="186" y="1498" type="line"/>
    </contour>
    <contour>
      <point x="204" y="1021" type="line"/>
      <point x="204" y="874" type="line"/>
      <point x="835" y="874" type="line"/>
      <point x="835" y="1021" type="line"/>
    </contour>
    <contour>
      <point x="772" y="1" type="line"/>
      <point x="922" y="1" type="line"/>
      <point x="922" y="1498" type="line"/>
      <point x="772" y="1498" type="line"/>
    </contour>
  </outline>
</glyph>
<glyph name="B" format="2">
  <advance width="1024"/>
  <unicode hex="0042"/>
  <outline>
    <contour>
      <point x="110" y="2" type="line"/>
      <point x="268" y="2" type="line"/>
      <point x="268" y="1534" type="line"/>
      <point x="110" y="1534" type="line"/>
    </contour>
    <contour>
      <point x="388" y="1378" type="line"/>
      <point x="947" y="1014.91" type="line"/>
      <point x="947" y="1180" type="line"/>
      <point x="387" y="1534" type="line"/>
    </contour>
    <contour>
      <point x="388" y="845" type="line"/>
      <point x="948" y="1009.05" type="line"/>
      <point x="948" y="1155.57" type="line"/>
      <point x="388" y="998" type="line"/>
    </contour>
    <contour>
      <point x="325" y="152" type="line"/>
      <point x="325" y="2" type="line"/>
      <point x="929" y="398.379" type="line"/>
      <point x="929" y="540.043" type="line"/>
    </contour>
    <contour>
      <point x="398" y="592" type="line"/>
      <point x="929" y="424.586" type="line"/>
      <point x="929" y="568.582" type="line"/>
      <point x="398" y="741" type="line"/>
    </contour>
    <contour>
      <point x="244" y="998" type="line"/>
      <point x="244" y="845" type="line"/>
      <point x="388" y="845" type="line"/>
      <point x="388" y="998" type="line"/>
    </contour>
    <contour>
      <point x="260" y="741" type="line"/>
      <point x="260" y="592" type="line"/>
      <point x="398" y="592" type="line"/>
      <point x="398" y="741" type="line"/>
    </contour>
    <contour>
      <point x="250" y="152" type="line"/>
      <point x="250" y="2" type="line"/>
      <point x="325" y="2" type="line"/>
      <point x="325" y="152" type="line"/>
    </contour>
    <contour>
      <point x="262" y="1534" type="line"/>
      <point x="262" y="1378" type="line"/>
      <point x="388" y="1378" type="line"/>
      <point x="388" y="1534" type="line"/>
    </contour>
  </outline>
</glyph>
<glyph name="C" format="2">
  <advance width="1124"/>
  <unicode hex="0043"/>
  <outline>
    <contour>
      <point x="221" y="1487" type="line"/>
      <point x="71" y="1487" type="line"/>
      <point x="71" y="50" type="line"/>
      <point x="221" y="50" type="line"/>
    </contour>
    <contour>
      <point x="953" y="1487" type="line"/>
      <point x="170" y="1487" type="line"/>
      <point x="170" y="1338" type="line"/>
      <point x="953" y="1338" type="line"/>
    </contour>
    <contour>
      <point x="951" y="199" type="line"/>
      <point x="156" y="199" type="line"/>
      <point x="156" y="50" type="line"/>
      <point x="951" y="50" type="line"/>
    </contour>
  </outline>
</glyph>
<glyph name="D" format="2">
  <advance width="1124"/>
  <unicode hex="0044"/>
  <outline>
    <contour>
      <point x="259" y="1498" type="line"/>
      <point x="107" y="1498" type="line"/>
      <point x="107" y="50" type="line"/>
      <point x="259" y="50" type="line"/>
    </contour>
    <contour>
      <point x="916" y="1013.26" type="line"/>
      <point x="447.999" y="1466.98" type="line"/>
      <point x="447.999" y="1343.05" type="line"/>
      <point x="916" y="836.356" type="line"/>
    </contour>
    <contour>
      <point x="913" y="929.256" type="line"/>
      <point x="457.495" y="206.781" type="line"/>
      <point x="457.495" y="101.599" type="line"/>
      <point x="913" y="776.06" type="line"/>
    </contour>
    <contour>
      <point x="388.653" y="1498" type="line"/>
      <point x="271" y="1498" type="line"/>
      <point x="271" y="1349" type="line"/>
      <point x="388.653" y="1349" type="line"/>
    </contour>
    <contour>
      <point x="398.148" y="200" type="line"/>
      <point x="279" y="200" type="line"/>
      <point x="279" y="50" type="line"/>
      <point x="398.148" y="50" type="line"/>
    </contour>
  </outline>
</glyph>
<glyph name="E" format="2">
  <advance width="1124"/>
  <unicode hex="0045"/>
  <outline>
    <contour>
      <point x="253" y="1487" type="line"/>
      <point x="103" y="1487" type="line"/>
      <point x="103" y="50" type="line"/>
      <point x="253" y="50" type="line"/>
    </contour>
    <contour>
      <point x="900" y="1487" type="line"/>
      <point x="181" y="1487" type="line"/>
      <point x="181" y="1333" type="line"/>
      <point x="900" y="1333" type="line"/>
    </contour>
    <contour>
      <point x="916" y="203" type="line"/>
      <point x="170" y="203" type="line"/>
      <point x="170" y="50" type="line"/>
      <point x="916" y="50" type="line"/>
    </contour>
    <contour>
      <point x="668.772" y="863" type="line"/>
      <point x="170" y="863" type="line"/>
      <point x="170" y="713" type="line"/>
      <point x="668.772" y="713" type="line"/>
    </contour>
  </outline>
</glyph>
<glyph name="F" format="2">
  <advance width="1124"/>
  <unicode hex="0046"/>
  <outline>
    <contour>
      <point x="291" y="1498" type="line"/>
      <point x="141" y="1498" type="line"/>
      <point x="141" y="50" type="line"/>
      <point x="291" y="50" type="line"/>
    </contour>
    <contour>
      <point x="877" y="1498" type="line"/>
      <point x="243" y="1498" type="line"/>
      <point x="243" y="1347" type="line"/>
      <point x="877" y="1347" type="line"/>
    </contour>
    <contour>
      <point x="780" y="850" type="line"/>
      <point x="231" y="850" type="line"/>
      <point x="231" y="697" type="line"/>
      <point x="780" y="697" type="line"/>
    </contour>
  </outline>
</glyph>
<glyph name="G" format="2">
  <advance width="1124"/>
  <unicode hex="0047"/>
  <outline>
    <contour>
      <point x="262" y="1498" type="line"/>
      <point x="110" y="1498" type="line"/>
      <point x="110" y="50" type="line"/>
      <point x="262" y="50" type="line"/>
    </contour>
    <contour>
      <point x="868" y="1498" type="line"/>
      <point x="168" y="1498" type="line"/>
      <point x="168" y="1347" type="line"/>
      <point x="868" y="1347" type="line"/>
    </contour>
    <contour>
      <point x="904" y="202" type="line"/>
      <point x="141" y="202" type="line"/>
      <point x="141" y="50" type="line"/>
      <point x="904" y="50" type="line"/>
    </contour>
    <contour>
      <point x="904" y="536" type="line"/>
      <point x="755" y="536" type="line"/>
      <point x="755" y="68" type="line"/>
      <point x="904" y="68" type="line"/>
    </contour>
  </outline>
</glyph>
<glyph name="H" format="2">
  <advance width="1124"/>
  <unicode hex="0048"/>
  <outline>
    <contour>
      <point x="239" y="1487" type="line"/>
      <point x="89" y="1487" type="line"/>
      <point x="89" y="50" type="line"/>
      <point x="239" y="50" type="line"/>
    </contour>
    <contour>
      <point x="885" y="1487" type="line"/>
      <point x="725" y="1487" type="line"/>
      <point x="725" y="50" type="line"/>
      <point x="885" y="50" type="line"/>
    </contour>
    <contour>
      <point x="755" y="998" type="line"/>
      <point x="209" y="998" type="line"/>
      <point x="209" y="843" type="line"/>
      <point x="755" y="843" type="line"/>
    </contour>
  </outline>
</glyph>
<glyph name="I" format="2">
  <advance width="1124"/>
  <unicode hex="0049"/>
  <outline>
    <contour>
      <point x="845" y="1487" type="line"/>
      <point x="144" y="1487" type="line"/>
      <point x="144" y="1335" type="line"/>
      <point x="845" y="1335" type="line"/>
    </contour>
    <contour>
      <point x="563.656" y="1418" type="line"/>
      <point x="378.688" y="1418" type="line"/>
      <point x="378.688" y="134" type="line"/>
      <point x="563.656" y="134" type="line"/>
    </contour>
    <contour>
      <point x="880" y="204" type="line"/>
      <point x="124" y="204" type="line"/>
      <point x="124" y="56" type="line"/>
      <point x="880" y="56" type="line"/>
    </contour>
  </outline>
</glyph>
<glyph name="J" format="2">
  <advance width="1124"/>
  <unicode hex="004A"/>
  <outline>
    <contour>
      <point x="900" y="1477" type="line"/>
      <point x="750" y="1477" type="line"/>
      <point x="750" y="50" type="line"/>
      <point x="900" y="50" type="line"/>
    </contour>
    <contour>
      <point x="741" y="208" type="line"/>
      <point x="126" y="208" type="line"/>
      <point x="126" y="50" type="line"/>
      <point x="741" y="50" type="line"/>
    </contour>
    <contour>
      <point x="273" y="503" type="line"/>
      <point x="125" y="503" type="line"/>
      <point x="125" y="102" type="line"/>
      <point x="273" y="102" type="line"/>
    </contour>
  </outline>
</glyph>
<glyph name="K" format="2">
  <advance width="1124"/>
  <unicode hex="004B"/>
  <outline>
    <contour>
      <point x="269" y="1487" type="line"/>
      <point x="118" y="1487" type="line"/>
      <point x="118" y="55" type="line"/>
      <point x="269" y="55" type="line"/>
    </contour>
    <contour>
      <point x="706.245" y="1479" type="line"/>
      <point x="170.508" y="996.764" type="line"/>
      <point x="259.55" y="874.051" type="line"/>
      <point x="905.914" y="1479" type="line"/>
    </contour>
    <contour>
      <point x="961.873" y="50" type="line"/>
      <point x="267.915" y="760.162" type="line"/>
      <point x="164.188" y="642.805" type="line"/>
      <point x="747.44" y="50" type="line"/>
    </contour>
  </outline>
</glyph>
<glyph name="L" format="2">
  <advance width="1124"/>
  <unicode hex="004C"/>
  <outline>
    <contour>
      <point x="201" y="1492" type="line"/>
      <point x="53" y="1492" type="line"/>
      <point x="53" y="50" type="line"/>
      <point x="201" y="50" type="line"/>
    </contour>
    <contour>
      <point x="888" y="202" type="line"/>
      <point x="162" y="202" type="line"/>
      <point x="162" y="50" type="line"/>
      <point x="888" y="50" type="line"/>
    </contour>
  </outline>
</glyph>
<glyph name="M" format="2">
  <advance width="1124"/>
  <unicode hex="004D"/>
  <outline>
    <contour>
      <point x="254" y="1498" type="line"/>
      <point x="101" y="1498" type="line"/>
      <point x="101" y="50" type="line"/>
      <point x="254" y="50" type="line"/>
    </contour>
    <contour>
      <point x="924" y="1487" type="line"/>
      <point x="772" y="1487" type="line"/>
      <point x="772" y="50" type="line"/>
      <point x="924" y="50" type="line"/>
    </contour>
    <contour>
      <point x="249.42" y="1491.55" type="line"/>
      <point x="146.957" y="1405.68" type="line"/>
      <point x="427.961" y="1031" type="line"/>
      <point x="580.141" y="1031" type="line"/>
    </contour>
    <contour>
      <point x="900.829" y="1449.51" type="line"/>
      <point x="785.112" y="1483.67" type="line"/>
      <point x="464.996" y="1023" type="line"/>
      <point x="616.018" y="1023" type="line"/>
    </contour>
  </outline>
</glyph>
<glyph name="N" format="2">
  <advance width="1124"/>
  <unicode hex="004E"/>
  <outline>
    <contour>
      <point x="250" y="1498" type="line"/>
      <point x="95" y="1498" type="line"/>
      <point x="95" y="50" type="line"/>
      <point x="250" y="50" type="line"/>
    </contour>
    <contour>
      <point x="924" y="1498" type="line"/>
      <point x="772" y="1498" type="line"/>
      <point x="772" y="50" type="line"/>
      <point x="924" y="50" type="line"/>
    </contour>
    <contour>
      <point x="259.129" y="1498" type="line"/>
      <point x="108.104" y="1498" type="line"/>
      <point x="764.852" y="50" type="line"/>
      <point x="913.941" y="50" type="line"/>
    </contour>
  </outline>
</glyph>
<glyph name="O" format="2">
  <advance width="1124"/>
  <unicode hex="004F"/>
  <outline>
    <contour>
      <point x="261" y="1487" type="line"/>
      <point x="110" y="1487" type="line"/>
      <point x="110" y="50" type="line"/>
      <point x="261" y="50" type="line"/>
    </contour>
    <contour>
      <point x="910" y="1487" type="line"/>
      <point x="757" y="1487" type="line"/>
      <point x="757" y="50" type="line"/>
      <point x="910" y="50" type="line"/>
    </contour>
    <contour>
      <point x="817" y="1487" type="line"/>
      <point x="174" y="1487" type="line"/>
      <point x="174" y="1337" type="line"/>
      <point x="817" y="1337" type="line"/>
    </contour>
    <contour>
      <point x="823" y="204" type="line"/>
      <point x="150" y="204" type="line"/>
      <point x="150" y="50" type="line"/>
      <point x="823" y="50" type="line"/>
    </contour>
  </outline>
</glyph>
<glyph name="P" format="2">
  <advance width="1124"/>
  <unicode hex="0050"/>
  <outline>
    <contour>
      <point x="252" y="1498" type="line"/>
      <point x="112" y="1498" type="line"/>
      <point x="112" y="59" type="line"/>
      <point x="252" y="59" type="line"/>
    </contour>
    <contour>
      <point x="847" y="1498" type="line"/>
      <point x="191" y="1498" type="line"/>
      <point x="191" y="1346" type="line"/>
      <point x="847" y="1346" type="line"/>
    </contour>
    <contour>
      <point x="867" y="1498" type="line"/>
      <point x="717" y="1498" type="line"/>
      <point x="717" y="906" type="line"/>
      <point x="867" y="906" type="line"/>
    </contour>
    <contour>
      <point x="862" y="1018" type="line"/>
      <point x="175" y="1018" type="line"/>
      <point x="175" y="893" type="line"/>
      <point x="862" y="893" type="line"/>
    </contour>
  </outline>
</glyph>
<glyph name="Q" format="2">
  <advance width="1124"/>
  <unicode hex="0051"/>
  <outline>
    <contour>
      <point x="259" y="1487" type="line"/>
      <point x="110" y="1487" type="line"/>
      <point x="110" y="55" type="line"/>
      <point x="259" y="55" type="line"/>
    </contour>
    <contour>
      <point x="910" y="1487" type="line"/>
      <point x="759" y="1487" type="line"/>
      <point x="759" y="50" type="line"/>
      <point x="910" y="50" type="line"/>
    </contour>
    <contour>
      <point x="817" y="1487" type="line"/>
      <point x="174" y="1487" type="line"/>
      <point x="174" y="1337" type="line"/>
      <point x="817" y="1337" type="line"/>
    </contour>
    <contour>
      <point x="823" y="205" type="line"/>
      <point x="150" y="205" type="line"/>
      <point x="150" y="50" type="line"/>
      <point x="823" y="50" type="line"/>
    </contour>
    <contour>
      <point x="765.617" y="124.028" type="line"/>
      <point x="605.946" y="33.9824" type="line"/>
      <point x="777.383" y="-229.292" type="line"/>
      <point x="925.647" y="-139.246" type="line"/>
    </contour>
  </outline>
</glyph>
<glyph name="R" format="2">
  <advance width="1124"/>
  <unicode hex="0052"/>
  <outline>
    <contour>
      <point x="263" y="25" type="line"/>
      <point x="263" y="1512" type="line"/>
      <point x="112" y="1512" type="line"/>
      <point x="112" y="25" type="line"/>
    </contour>
    <contour>
      <point x="847" y="1360" type="line"/>
      <point x="847" y="1512" type="line"/>
      <point x="191" y="1512" type="line"/>
      <point x="191" y="1360" type="line"/>
    </contour>
    <contour>
      <point x="874" y="897" type="line"/>
      <point x="874" y="1512" type="line"/>
      <point x="724" y="1512" type="line"/>
      <point x="724" y="897" type="line"/>
    </contour>
    <contour>
      <point x="862" y="893" type="line"/>
      <point x="862" y="1054" type="line"/>
      <point x="175" y="1054" type="line"/>
      <point x="175" y="893" type="line"/>
    </contour>
    <contour>
      <point x="941.412" y="25" type="line"/>
      <point x="524.87" y="847.139" type="line"/>
      <point x="328.179" y="848.654" type="line"/>
      <point x="757.022" y="25" type="line"/>
    </contour>
  </outline>
</glyph>
<glyph name="S" format="2">
  <advance width="1124"/>
  <unicode hex="0053"/>
  <outline>
    <contour>
      <point x="744" y="1487" type="line"/>
      <point x="146" y="1487" type="line"/>
      <point x="146" y="1336" type="line"/>
      <point x="744" y="1336" type="line"/>
    </contour>
    <contour>
      <point x="298" y="1492" type="line"/>
      <point x="146" y="1492" type="line"/>
      <point x="146" y="1028" type="line"/>
      <point x="298" y="1028" type="line"/>
    </contour>
    <contour>
      <point x="882" y="199" type="line"/>
      <point x="174" y="199" type="line"/>
      <point x="174" y="50" type="line"/>
      <point x="882" y="50" type="line"/>
    </contour>
    <contour>
      <point x="767" y="355" type="line"/>
      <point x="767" y="50" type="line"/>
      <point x="918" y="50" type="line"/>
      <point x="918" y="355" type="line"/>
    </contour>
    <contour>
      <point x="311.418" y="1003" type="line"/>
      <point x="174.991" y="1003" type="line"/>
      <point x="753.569" y="405" type="line"/>
      <point x="889.07" y="405" type="line"/>
    </contour>
  </outline>
</glyph>
<glyph name="T" format="2">
  <advance width="1124"/>
  <unicode hex="0054"/>
  <outline>
    <contour>
      <point x="899" y="1498" type="line"/>
      <point x="125" y="1498" type="line"/>
      <point x="125" y="1348" type="line"/>
      <point x="899" y="1348" type="line"/>
    </contour>
    <contour>
      <point x="603.13" y="1386" type="line"/>
      <point x="420.87" y="1386" type="line"/>
      <point x="420.87" y="56" type="line"/>
      <point x="603.13" y="56" type="line"/>
    </contour>
  </outline>
</glyph>
<glyph name="U" format="2">
  <advance width="1124"/>
  <unicode hex="0055"/>
  <outline>
    <contour>
      <point x="307" y="1487" type="line"/>
      <point x="157" y="1487" type="line"/>
      <point x="157" y="50" type="line"/>
      <point x="307" y="50" type="line"/>
    </contour>
    <contour>
      <point x="867" y="1487" type="line"/>
      <point x="718" y="1487" type="line"/>
      <point x="718" y="50" type="line"/>
      <point x="867" y="50" type="line"/>
    </contour>
    <contour>
      <point x="824" y="200" type="line"/>
      <point x="204" y="200" type="line"/>
      <point x="204" y="50" type="line"/>
      <point x="824" y="50" type="line"/>
    </contour>
  </outline>
</glyph>
<glyph name="V" format="2">
  <advance width="1124"/>
  <unicode hex="0056"/>
  <outline>
    <contour>
      <point x="256.561" y="1498" type="line"/>
      <point x="106" y="1498" type="line"/>
      <point x="358.72" y="50" type="line"/>
      <point x="561.131" y="50" type="line"/>
    </contour>
    <contour>
      <point x="908.952" y="1498" type="line"/>
      <point x="758.079" y="1498" type="line"/>
      <point x="516.852" y="50" type="line"/>
      <point x="712.51" y="50" type="line"/>
    </contour>
  </outline>
</glyph>
<glyph name="W" format="2">
  <advance width="1124"/>
  <unicode hex="0057"/>
  <outline>
    <contour>
      <point x="255" y="1498" type="line"/>
      <point x="104" y="1498" type="line"/>
      <point x="104" y="50" type="line"/>
      <point x="255" y="50" type="line"/>
    </contour>
    <contour>
      <point x="922" y="1498" type="line"/>
      <point x="771" y="1498" type="line"/>
      <point x="771" y="62" type="line"/>
      <point x="922" y="62" type="line"/>
    </contour>
    <contour>
      <point x="602.785" y="1003" type="line"/>
      <point x="424.576" y="1003" type="line"/>
      <point x="424.576" y="50" type="line"/>
      <point x="602.785" y="50" type="line"/>
    </contour>
    <contour>
      <point x="922" y="201" type="line"/>
      <point x="103" y="201" type="line"/>
      <point x="103" y="50" type="line"/>
      <point x="922" y="50" type="line"/>
    </contour>
  </outline>
</glyph>
<glyph name="X" format="2">
  <advance width="1124"/>
  <unicode hex="0058"/>
  <outline>
    <contour>
      <point x="235.872" y="1498" type="line"/>
      <point x="91" y="1498" type="line"/>
      <point x="762.264" y="50" type="line"/>
      <point x="908.104" y="50" type="line"/>
    </contour>
    <contour>
      <point x="755.339" y="1498" type="line"/>
      <point x="93.832" y="56" type="line"/>
      <point x="240.767" y="56" type="line"/>
      <point x="900.339" y="1498" type="line"/>
    </contour>
  </outline>
</glyph>
<glyph name="Y" format="2">
  <advance width="1074"/>
  <unicode hex="0059"/>
  <outline>
    <contour>
      <point x="563" y="872" type="line"/>
      <point x="411" y="872" type="line"/>
      <point x="411" y="50" type="line"/>
      <point x="563" y="50" type="line"/>
    </contour>
    <contour>
      <point x="310" y="1498" type="line"/>
      <point x="160" y="1498" type="line"/>
      <point x="160" y="884" type="line"/>
      <point x="310" y="884" type="line"/>
    </contour>
    <contour>
      <point x="814" y="1498" type="line"/>
      <point x="665" y="1498" type="line"/>
      <point x="665" y="884" type="line"/>
      <point x="814" y="884" type="line"/>
    </contour>
    <contour>
      <point x="724" y="998" type="line"/>
      <point x="228" y="998" type="line"/>
      <point x="228" y="884" type="line"/>
      <point x="724" y="884" type="line"/>
    </contour>
  </outline>
</glyph>
<glyph name="Z" format="2">
  <advance width="1124"/>
  <unicode hex="005A"/>
  <outline>
    <contour>
      <point x="931" y="1361" type="line"/>
      <point x="931" y="1523" type="line"/>
      <point x="97" y="1523" type="line"/>
      <point x="97" y="1361" type="line"/>
    </contour>
    <contour>
      <point x="926" y="25" type="line"/>
      <point x="926" y="187" type="line"/>
      <point x="98" y="187" type="line"/>
      <point x="98" y="25" type="line"/>
    </contour>
    <contour>
      <point x="265.122" y="236" type="line"/>
      <point x="897.986" y="1310" type="line"/>
      <point x="710.331" y="1310" type="line"/>
      <point x="113.775" y="236" type="line"/>
    </contour>
  </outline>
</glyph>
<glyph name="bracketleft" format="2">
  <advance width="1024"/>
  <unicode hex="005B"/>
  <outline>
    <contour>
      <point x="259" y="1517" type="line"/>
      <point x="187" y="1517" type="line"/>
      <point x="187" y="-217" type="line"/>
      <point x="259" y="-217" type="line"/>
    </contour>
    <contour>
      <point x="400" y="1518" type="line"/>
      <point x="241" y="1518" type="line"/>
      <point x="241" y="1441" type="line"/>
      <point x="400" y="1441" type="line"/>
    </contour>
    <contour>
      <point x="405" y="-116" type="line"/>
      <point x="241" y="-116" type="line"/>
      <point x="241" y="-217" type="line"/>
      <point x="405" y="-217" type="line"/>
    </contour>
  </outline>
</glyph>
<glyph name="backslash" format="2">
  <advance width="1024"/>
  <unicode hex="005C"/>
  <outline>
    <contour>
      <point x="346.72" y="1486.62" type="line"/>
      <point x="201.073" y="1427.45" type="line"/>
      <point x="808.249" y="19.4193" type="line"/>
      <point x="952.959" y="78.5153" type="line"/>
    </contour>
  </outline>
</glyph>
<glyph name="bracketright" format="2">
  <advance width="1024"/>
  <unicode hex="005D"/>
  <outline>
    <contour>
      <point x="463" y="1517" type="line"/>
      <point x="391" y="1517" type="line"/>
      <point x="391" y="-217" type="line"/>
      <point x="463" y="-217" type="line"/>
    </contour>
    <contour>
      <point x="400" y="1518" type="line"/>
      <point x="241" y="1518" type="line"/>
      <point x="241" y="1441" type="line"/>
      <point x="400" y="1441" type="line"/>
    </contour>
    <contour>
      <point x="405" y="-116" type="line"/>
      <point x="241" y="-116" type="line"/>
      <point x="241" y="-217" type="line"/>
      <point x="405" y="-217" type="line"/>
    </contour>
  </outline>
</glyph>
<glyph name="asciicircum" format="2">
  <advance width="1024"/>
  <unicode hex="005E"/>
  <outline>
    <contour>
      <point x="328.961" y="377.858" type="line"/>
      <point x="570.433" y="998" type="line"/>
      <point x="474.464" y="998" type="line"/>
      <point x="225.992" y="420.419" type="line"/>
    </contour>
    <contour>
      <point x="597.074" y="982.221" type="line"/>
      <point x="494.674" y="897.007" type="line"/>
      <point x="733.019" y="374.696" type="line"/>
      <point x="836.88" y="414.163" type="line"/>
    </contour>
  </outline>
</glyph>
<glyph name="underscore" format="2">
  <advance width="1024"/>
  <unicode hex="005F"/>
  <outline>
    <contour>
      <point x="994" y="-30" type="line"/>
      <point x="20" y="-30" type="line"/>
      <point x="20" y="-46" type="line"/>
      <point x="994" y="-46" type="line"/>
    </contour>
  </outline>
</glyph>
<glyph name="grave" format="2">
  <advance width="1024"/>
  <unicode hex="0060"/>
  <outline>
    <contour>
      <point x="402.428" y="1396.57" type="line"/>
      <point x="299.334" y="1346.41" type="line"/>
      <point x="422.661" y="1090.4" type="line"/>
      <point x="526.576" y="1140.62" type="line"/>
    </contour>
  </outline>
</glyph>
<glyph name="a" format="2">
  <advance width="1024"/>
  <unicode hex="0061"/>
  <outline>
    <contour>
      <point x="168" y="1023" type="line"/>
      <point x="168" y="893" type="line"/>
      <point x="774" y="893" type="line"/>
      <point x="774" y="1023" type="line"/>
    </contour>
    <contour>
      <point x="725" y="1023" type="line"/>
      <point x="725" y="0" type="line"/>
      <point x="855" y="0" type="line"/>
      <point x="855" y="1023" type="line"/>
    </contour>
    <contour>
      <point x="172" y="599" type="line"/>
      <point x="172" y="469" type="line"/>
      <point x="796" y="469" type="line"/>
      <point x="796" y="599" type="line"/>
    </contour>
    <contour>
      <point x="172" y="575" type="line"/>
      <point x="172" y="0" type="line"/>
      <point x="302" y="0" type="line"/>
      <point x="302" y="575" type="line"/>
    </contour>
    <contour>
      <point x="170" y="130" type="line"/>
      <point x="170" y="0" type="line"/>
      <point x="838" y="0" type="line"/>
      <point x="838" y="130" type="line"/>
    </contour>
  </outline>
</glyph>
<glyph name="b" format="2">
  <advance width="1024"/>
  <unicode hex="0062"/>
  <outline>
    <contour>
      <point x="135" y="1537" type="line"/>
      <point x="135" y="0" type="line"/>
      <point x="265" y="0" type="line"/>
      <point x="265" y="1537" type="line"/>
    </contour>
    <contour>
      <point x="232" y="1033" type="line"/>
      <point x="232" y="903" type="line"/>
      <point x="798" y="903" type="line"/>
      <point x="798" y="1033" type="line"/>
    </contour>
    <contour>
      <point x="759" y="1033" type="line"/>
      <point x="759" y="0" type="line"/>
      <point x="889" y="0" type="line"/>
      <point x="889" y="1033" type="line"/>
    </contour>
    <contour>
      <point x="233" y="130" type="line"/>
      <point x="233" y="0" type="line"/>
      <point x="810" y="0" type="line"/>
      <point x="810" y="130" type="line"/>
    </contour>
  </outline>
</glyph>
<glyph name="c" format="2">
  <advance width="1074"/>
  <unicode hex="0063"/>
  <outline>
    <contour>
      <point x="810" y="973" type="line"/>
      <point x="164" y="973" type="line"/>
      <point x="164" y="826" type="line"/>
      <point x="810" y="826" type="line"/>
    </contour>
    <contour>
      <point x="318" y="934" type="line"/>
      <point x="166" y="934" type="line"/>
      <point x="166" y="50" type="line"/>
      <point x="318" y="50" type="line"/>
    </contour>
    <contour>
      <point x="804" y="201" type="line"/>
      <point x="272" y="201" type="line"/>
      <point x="272" y="50" type="line"/>
      <point x="804" y="50" type="line"/>
    </contour>
  </outline>
</glyph>
<glyph name="d" format="2">
  <advance width="1124"/>
  <unicode hex="0064"/>
  <outline>
    <contour>
      <point x="893" y="1477" type="line"/>
      <point x="742" y="1477" type="line"/>
      <point x="742" y="50" type="line"/>
      <point x="893" y="50" type="line"/>
    </contour>
    <contour>
      <point x="781" y="973" type="line"/>
      <point x="228" y="973" type="line"/>
      <point x="228" y="822" type="line"/>
      <point x="781" y="822" type="line"/>
    </contour>
    <contour>
      <point x="283" y="973" type="line"/>
      <point x="132" y="973" type="line"/>
      <point x="132" y="50" type="line"/>
      <point x="283" y="50" type="line"/>
    </contour>
    <contour>
      <point x="845" y="195" type="line"/>
      <point x="228" y="195" type="line"/>
      <point x="228" y="50" type="line"/>
      <point x="845" y="50" type="line"/>
    </contour>
  </outline>
</glyph>
<glyph name="e" format="2">
  <advance width="1074"/>
  <unicode hex="0065"/>
  <outline>
    <contour>
      <point x="804" y="973" type="line"/>
      <point x="219" y="973" type="line"/>
      <point x="219" y="812" type="line"/>
      <point x="804" y="812" type="line"/>
    </contour>
    <contour>
      <point x="321" y="973" type="line"/>
      <point x="169" y="973" type="line"/>
      <point x="169" y="50" type="line"/>
      <point x="321" y="50" type="line"/>
    </contour>
    <contour>
      <point x="803" y="201" type="line"/>
      <point x="271" y="201" type="line"/>
      <point x="271" y="50" type="line"/>
      <point x="803" y="50" type="line"/>
    </contour>
    <contour>
      <point x="779" y="600" type="line"/>
      <point x="239" y="600" type="line"/>
      <point x="239" y="471" type="line"/>
      <point x="779" y="471" type="line"/>
    </contour>
    <contour>
      <point x="802" y="943" type="line"/>
      <point x="657" y="943" type="line"/>
      <point x="657" y="470" type="line"/>
      <point x="802" y="470" type="line"/>
    </contour>
  </outline>
</glyph>
<glyph name="f" format="2">
  <advance width="1124"/>
  <unicode hex="0066"/>
  <outline>
    <contour>
      <point x="489.659" y="973" type="line"/>
      <point x="316" y="973" type="line"/>
      <point x="316" y="-356" type="line"/>
      <point x="489.659" y="-356" type="line"/>
    </contour>
    <contour>
      <point x="860" y="973" type="line"/>
      <point x="378.064" y="973" type="line"/>
      <point x="378.064" y="831" type="line"/>
      <point x="860" y="831" type="line"/>
    </contour>
    <contour>
      <point x="763" y="534" type="line"/>
      <point x="132" y="534" type="line"/>
      <point x="132" y="381" type="line"/>
      <point x="763" y="381" type="line"/>
    </contour>
  </outline>
</glyph>
<glyph name="g" format="2">
  <advance width="1074"/>
  <unicode hex="0067"/>
  <outline>
    <contour>
      <point x="439" y="973" type="line"/>
      <point x="297" y="973" type="line"/>
      <point x="297" y="50" type="line"/>
      <point x="439" y="50" type="line"/>
    </contour>
    <contour>
      <point x="803" y="973" type="line"/>
      <point x="337" y="973" type="line"/>
      <point x="337" y="823" type="line"/>
      <point x="803" y="823" type="line"/>
    </contour>
    <contour>
      <point x="825" y="973" type="line"/>
      <point x="681" y="973" type="line"/>
      <point x="681" y="-361" type="line"/>
      <point x="825" y="-361" type="line"/>
    </contour>
    <contour>
      <point x="767" y="198" type="line"/>
      <point x="360" y="198" type="line"/>
      <point x="360" y="50" type="line"/>
      <point x="767" y="50" type="line"/>
    </contour>
    <contour>
      <point x="776" y="-214" type="line"/>
      <point x="291" y="-214" type="line"/>
      <point x="291" y="-363" type="line"/>
      <point x="776" y="-363" type="line"/>
    </contour>
  </outline>
</glyph>
<glyph name="h" format="2">
  <advance width="1074"/>
  <unicode hex="0068"/>
  <outline>
    <contour>
      <point x="324" y="1487" type="line"/>
      <point x="174" y="1487" type="line"/>
      <point x="174" y="56" type="line"/>
      <point x="324" y="56" type="line"/>
    </contour>
    <contour>
      <point x="792" y="973" type="line"/>
      <point x="311" y="973" type="line"/>
      <point x="311" y="826" type="line"/>
      <point x="792" y="826" type="line"/>
    </contour>
    <contour>
      <point x="800" y="973" type="line"/>
      <point x="651" y="973" type="line"/>
      <point x="651" y="50" type="line"/>
      <point x="800" y="50" type="line"/>
    </contour>
  </outline>
</glyph>
<glyph name="j" format="2">
  <advance width="1074"/>
  <unicode hex="006A"/>
  <outline>
    <contour>
      <point x="776" y="973" type="line"/>
      <point x="627" y="973" type="line"/>
      <point x="627" y="-361" type="line"/>
      <point x="776" y="-361" type="line"/>
    </contour>
    <contour>
      <point x="677" y="-209" type="line"/>
      <point x="197" y="-209" type="line"/>
      <point x="197" y="-356" type="line"/>
      <point x="677" y="-356" type="line"/>
    </contour>
    <contour>
      <point x="348" y="-6" type="line"/>
      <point x="198" y="-6" type="line"/>
      <point x="198" y="-301" type="line"/>
      <point x="348" y="-301" type="line"/>
    </contour>
    <contour>
      <point x="770" y="1363" type="line"/>
      <point x="619" y="1363" type="line"/>
      <point x="619" y="1214" type="line"/>
      <point x="770" y="1214" type="line"/>
    </contour>
  </outline>
</glyph>
<glyph name="k" format="2">
  <advance width="1124"/>
  <unicode hex="006B"/>
  <outline>
    <contour>
      <point x="268" y="1487" type="line"/>
      <point x="118" y="1487" type="line"/>
      <point x="118" y="55" type="line"/>
      <point x="268" y="55" type="line"/>
    </contour>
    <contour>
      <point x="721.178" y="973" type="line"/>
      <point x="169.454" y="507.877" type="line"/>
      <point x="205.112" y="349.232" type="line"/>
      <point x="869.876" y="973" type="line"/>
    </contour>
    <contour>
      <point x="930.968" y="50" type="line"/>
      <point x="403.442" y="594.429" type="line"/>
      <point x="281.955" y="482.149" type="line"/>
      <point x="757.87" y="50" type="line"/>
    </contour>
  </outline>
</glyph>
<glyph name="l" format="2">
  <advance width="1074"/>
  <unicode hex="006C"/>
  <outline>
    <contour>
      <point x="779" y="209" type="line"/>
      <point x="195" y="209" type="line"/>
      <point x="195" y="59" type="line"/>
      <point x="779" y="59" type="line"/>
    </contour>
    <contour>
      <point x="562" y="1498" type="line"/>
      <point x="412" y="1498" type="line"/>
      <point x="412" y="136" type="line"/>
      <point x="562" y="136" type="line"/>
    </contour>
    <contour>
      <point x="441" y="1498" type="line"/>
      <point x="256" y="1498" type="line"/>
      <point x="256" y="1349" type="line"/>
      <point x="441" y="1349" type="line"/>
    </contour>
  </outline>
</glyph>
<glyph name="m" format="2">
  <advance width="1124"/>
  <unicode hex="006D"/>
  <outline>
    <contour>
      <point x="260" y="943" type="line"/>
      <point x="110" y="943" type="line"/>
      <point x="110" y="50" type="line"/>
      <point x="260" y="50" type="line"/>
    </contour>
    <contour>
      <point x="615.528" y="922" type="line"/>
      <point x="445.007" y="922" type="line"/>
      <point x="445.007" y="50" type="line"/>
      <point x="615.528" y="50" type="line"/>
    </contour>
    <contour>
      <point x="940" y="926" type="line"/>
      <point x="790" y="926" type="line"/>
      <point x="790" y="50" type="line"/>
      <point x="940" y="50" type="line"/>
    </contour>
    <contour>
      <point x="939" y="973" type="line"/>
      <point x="33" y="973" type="line"/>
      <point x="33" y="826" type="line"/>
      <point x="939" y="826" type="line"/>
    </contour>
  </outline>
</glyph>
<glyph name="n" format="2">
  <advance width="1124"/>
  <unicode hex="006E"/>
  <outline>
    <contour>
      <point x="412.736" y="940" type="line"/>
      <point x="244" y="940" type="line"/>
      <point x="244" y="50" type="line"/>
      <point x="412.736" y="50" type="line"/>
    </contour>
    <contour>
      <point x="844" y="926" type="line"/>
      <point x="693" y="926" type="line"/>
      <point x="693" y="50" type="line"/>
      <point x="844" y="50" type="line"/>
    </contour>
    <contour>
      <point x="843" y="973" type="line"/>
      <point x="65" y="973" type="line"/>
      <point x="65" y="826" type="line"/>
      <point x="843" y="826" type="line"/>
    </contour>
  </outline>
</glyph>
<glyph name="o" format="2">
  <advance width="1124"/>
  <unicode hex="006F"/>
  <outline>
    <contour>
      <point x="254" y="973" type="line"/>
      <point x="104" y="973" type="line"/>
      <point x="104" y="50" type="line"/>
      <point x="254" y="50" type="line"/>
    </contour>
    <contour>
      <point x="921" y="973" type="line"/>
      <point x="769" y="973" type="line"/>
      <point x="769" y="50" type="line"/>
      <point x="921" y="50" type="line"/>
    </contour>
    <contour>
      <point x="813" y="973" type="line"/>
      <point x="227" y="973" type="line"/>
      <point x="227" y="822" type="line"/>
      <point x="813" y="822" type="line"/>
    </contour>
    <contour>
      <point x="803" y="200" type="line"/>
      <point x="231" y="200" type="line"/>
      <point x="231" y="50" type="line"/>
      <point x="803" y="50" type="line"/>
    </contour>
  </outline>
</glyph>
<glyph name="p" format="2">
  <advance width="1074"/>
  <unicode hex="0070"/>
  <outline>
    <contour>
      <point x="323" y="1153" type="line"/>
      <point x="173" y="1153" type="line"/>
      <point x="173" y="-356" type="line"/>
      <point x="323" y="-356" type="line"/>
    </contour>
    <contour>
      <point x="760" y="973" type="line"/>
      <point x="271" y="973" type="line"/>
      <point x="271" y="821" type="line"/>
      <point x="760" y="821" type="line"/>
    </contour>
    <contour>
      <point x="765" y="202" type="line"/>
      <point x="275" y="202" type="line"/>
      <point x="275" y="50" type="line"/>
      <point x="765" y="50" type="line"/>
    </contour>
    <contour>
      <point x="761" y="826" type="line"/>
      <point x="613" y="826" type="line"/>
      <point x="613" y="225" type="line"/>
      <point x="761" y="225" type="line"/>
    </contour>
  </outline>
</glyph>
<glyph name="q" format="2">
  <advance width="1124"/>
  <unicode hex="0071"/>
  <outline>
    <contour>
      <point x="861" y="1151" type="line"/>
      <point x="712" y="1151" type="line"/>
      <point x="712" y="-356" type="line"/>
      <point x="861" y="-356" type="line"/>
    </contour>
    <contour>
      <point x="838" y="973" type="line"/>
      <point x="189" y="973" type="line"/>
      <point x="189" y="823" type="line"/>
      <point x="838" y="823" type="line"/>
    </contour>
    <contour>
      <point x="806" y="203" type="line"/>
      <point x="190" y="203" type="line"/>
      <point x="190" y="50" type="line"/>
      <point x="806" y="50" type="line"/>
    </contour>
    <contour>
      <point x="338" y="805" type="line"/>
      <point x="188" y="805" type="line"/>
      <point x="188" y="157" type="line"/>
      <point x="338" y="157" type="line"/>
    </contour>
    <contour>
      <point x="937" y="-268" type="line"/>
      <point x="751" y="-268" type="line"/>
      <point x="751" y="-356" type="line"/>
      <point x="937" y="-356" type="line"/>
    </contour>
  </outline>
</glyph>
<glyph name="r" format="2">
  <advance width="1124"/>
  <unicode hex="0072"/>
  <outline>
    <contour>
      <point x="898" y="973" type="line"/>
      <point x="165" y="973" type="line"/>
      <point x="165" y="821" type="line"/>
      <point x="898" y="821" type="line"/>
    </contour>
    <contour>
      <point x="561.136" y="904" type="line"/>
      <point x="380" y="904" type="line"/>
      <point x="380" y="50" type="line"/>
      <point x="561.136" y="50" type="line"/>
    </contour>
    <contour>
      <point x="898" y="926" type="line"/>
      <point x="748" y="926" type="line"/>
      <point x="748" y="675" type="line"/>
      <point x="898" y="675" type="line"/>
    </contour>
  </outline>
</glyph>
<glyph name="s" format="2">
  <advance width="1074"/>
  <unicode hex="0073"/>
  <outline>
    <contour>
      <point x="745" y="973" type="line"/>
      <point x="186" y="973" type="line"/>
      <point x="186" y="826" type="line"/>
      <point x="745" y="826" type="line"/>
    </contour>
    <contour>
      <point x="336" y="973" type="line"/>
      <point x="186" y="973" type="line"/>
      <point x="186" y="736" type="line"/>
      <point x="336" y="736" type="line"/>
    </contour>
    <contour>
      <point x="742" y="201" type="line"/>
      <point x="187" y="201" type="line"/>
      <point x="187" y="50" type="line"/>
      <point x="742" y="50" type="line"/>
    </contour>
    <contour>
      <point x="741" y="293" type="line"/>
      <point x="591" y="293" type="line"/>
      <point x="591" y="62" type="line"/>
      <point x="741" y="62" type="line"/>
    </contour>
    <contour>
      <point x="350.971" y="686" type="line"/>
      <point x="218.628" y="686" type="line"/>
      <point x="577.029" y="343" type="line"/>
      <point x="709.372" y="343" type="line"/>
    </contour>
  </outline>
</glyph>
<glyph name="t" format="2">
  <advance width="1074"/>
  <unicode hex="0074"/>
  <outline>
    <contour>
      <point x="560" y="1498" type="line"/>
      <point x="410" y="1498" type="line"/>
      <point x="410" y="50" type="line"/>
      <point x="560" y="50" type="line"/>
    </contour>
    <contour>
      <point x="759" y="199" type="line"/>
      <point x="418" y="199" type="line"/>
      <point x="418" y="50" type="line"/>
      <point x="759" y="50" type="line"/>
    </contour>
    <contour>
      <point x="798" y="973" type="line"/>
      <point x="174" y="973" type="line"/>
      <point x="174" y="824" type="line"/>
      <point x="798" y="824" type="line"/>
    </contour>
  </outline>
</glyph>
<glyph name="u" format="2">
  <advance width="1124"/>
  <unicode hex="0075"/>
  <outline>
    <contour>
      <point x="290" y="973" type="line"/>
      <point x="139" y="973" type="line"/>
      <point x="139" y="50" type="line"/>
      <point x="290" y="50" type="line"/>
    </contour>
    <contour>
      <point x="771" y="973" type="line"/>
      <point x="615.881" y="973" type="line"/>
      <point x="615.881" y="50" type="line"/>
      <point x="771" y="50" type="line"/>
    </contour>
    <contour>
      <point x="888" y="200" type="line"/>
      <point x="186" y="200" type="line"/>
      <point x="186" y="50" type="line"/>
      <point x="888" y="50" type="line"/>
    </contour>
  </outline>
</glyph>
<glyph name="v" format="2">
  <advance width="1074"/>
  <unicode hex="0076"/>
  <outline>
    <contour>
      <point x="328.905" y="973" type="line"/>
      <point x="181" y="973" type="line"/>
      <point x="398.808" y="50" type="line"/>
      <point x="554.322" y="50" type="line"/>
    </contour>
    <contour>
      <point x="780.591" y="973" type="line"/>
      <point x="631.693" y="973" type="line"/>
      <point x="408.179" y="50" type="line"/>
      <point x="563.734" y="50" type="line"/>
    </contour>
  </outline>
</glyph>
<glyph name="w" format="2">
  <advance width="1124"/>
  <unicode hex="0077"/>
  <outline>
    <contour>
      <point x="252" y="973" type="line"/>
      <point x="103" y="973" type="line"/>
      <point x="103" y="50" type="line"/>
      <point x="252" y="50" type="line"/>
    </contour>
    <contour>
      <point x="921" y="978" type="line"/>
      <point x="772" y="978" type="line"/>
      <point x="772" y="62" type="line"/>
      <point x="921" y="62" type="line"/>
    </contour>
    <contour>
      <point x="597.064" y="585" type="line"/>
      <point x="418.855" y="585" type="line"/>
      <point x="418.855" y="50" type="line"/>
      <point x="597.064" y="50" type="line"/>
    </contour>
    <contour>
      <point x="921" y="276" type="line"/>
      <point x="102" y="276" type="line"/>
      <point x="102" y="50" type="line"/>
      <point x="921" y="50" type="line"/>
    </contour>
  </outline>
</glyph>
<glyph name="x" format="2">
  <advance width="1124"/>
  <unicode hex="0078"/>
  <outline>
    <contour>
      <point x="746.866" y="973" type="line"/>
      <point x="91" y="50" type="line"/>
      <point x="233.077" y="50" type="line"/>
      <point x="887.041" y="973" type="line"/>
    </contour>
    <contour>
      <point x="236.124" y="973" type="line"/>
      <point x="93.1865" y="973" type="line"/>
      <point x="753.809" y="50" type="line"/>
      <point x="893.892" y="50" type="line"/>
    </contour>
  </outline>
</glyph>
<glyph name="y" format="2">
  <advance width="1124"/>
  <unicode hex="0079"/>
  <outline>
    <contour>
      <point x="880" y="973" type="line"/>
      <point x="730" y="973" type="line"/>
      <point x="730" y="-356" type="line"/>
      <point x="880" y="-356" type="line"/>
    </contour>
    <contour>
      <point x="864" y="-211" type="line"/>
      <point x="147" y="-211" type="line"/>
      <point x="147" y="-356" type="line"/>
      <point x="864" y="-356" type="line"/>
    </contour>
    <contour>
      <point x="297" y="973" type="line"/>
      <point x="147" y="973" type="line"/>
      <point x="147" y="314" type="line"/>
      <point x="297" y="314" type="line"/>
    </contour>
    <contour>
      <point x="765" y="439" type="line"/>
      <point x="147" y="439" type="line"/>
      <point x="147" y="314" type="line"/>
      <point x="765" y="314" type="line"/>
    </contour>
  </outline>
</glyph>
<glyph name="z" format="2">
  <advance width="1124"/>
  <unicode hex="007A"/>
  <outline>
    <contour>
      <point x="926" y="973" type="line"/>
      <point x="98" y="973" type="line"/>
      <point x="98" y="826" type="line"/>
      <point x="926" y="826" type="line"/>
    </contour>
    <contour>
      <point x="926" y="201" type="line"/>
      <point x="98" y="201" type="line"/>
      <point x="98" y="50" type="line"/>
      <point x="926" y="50" type="line"/>
    </contour>
    <contour>
      <point x="897.553" y="776" type="line"/>
      <point x="668.786" y="776" type="line"/>
      <point x="127.368" y="251" type="line"/>
      <point x="371.423" y="251" type="line"/>
    </contour>
  </outline>
</glyph>
<glyph name="braceleft" format="2">
  <advance width="1024"/>
  <unicode hex="007B"/>
  <outline>
    <contour>
      <point x="542" y="1523" type="line"/>
      <point x="446" y="1523" type="line"/>
      <point x="446" y="863" type="line"/>
      <point x="542" y="863" type="line"/>
    </contour>
    <contour>
      <point x="554" y="399" type="line"/>
      <point x="458" y="399" type="line"/>
      <point x="458" y="-261" type="line"/>
      <point x="554" y="-261" type="line"/>
    </contour>
    <contour>
      <point x="427.033" y="813" type="line"/>
      <point x="157" y="674.713" type="line"/>
      <point x="157" y="669.668" type="line"/>
      <point x="456.757" y="813" type="line"/>
    </contour>
    <contour>
      <point x="488.631" y="450" type="line"/>
      <point x="157" y="646.166" type="line"/>
      <point x="157" y="643.169" type="line"/>
      <point x="438.744" y="450" type="line"/>
    </contour>
    <contour>
      <point x="447" y="1578" type="line"/>
      <point x="447" y="1490.85" type="line"/>
      <point x="638.439" y="1578" type="line"/>
    </contour>
    <contour>
      <point x="459" y="-262" type="line"/>
      <point x="628.037" y="-262" type="line"/>
      <point x="459" y="-179.931" type="line"/>
    </contour>
  </outline>
</glyph>
<glyph name="bar" format="2">
  <advance width="1024"/>
  <unicode hex="007C"/>
  <outline>
    <contour>
      <point x="703" y="1410" type="line"/>
      <point x="550" y="1410" type="line"/>
      <point x="550" y="-65" type="line"/>
      <point x="703" y="-65" type="line"/>
    </contour>
  </outline>
</glyph>
<glyph name="braceright" format="2">
  <advance width="1024"/>
  <unicode hex="007D"/>
  <outline>
    <contour>
      <point x="412" y="863" type="line"/>
      <point x="412" y="1523" type="line"/>
      <point x="300" y="1523" type="line"/>
      <point x="300" y="863" type="line"/>
    </contour>
    <contour>
      <point x="398" y="-261" type="line"/>
      <point x="398" y="399" type="line"/>
      <point x="288" y="399" type="line"/>
      <point x="288" y="-261" type="line"/>
    </contour>
    <contour>
      <point x="685" y="669.512" type="line"/>
      <point x="685" y="674.986" type="line"/>
      <point x="425.757" y="813" type="line"/>
      <point x="382.158" y="813" type="line"/>
    </contour>
    <contour>
      <point x="685" y="642.826" type="line"/>
      <point x="685" y="646.031" type="line"/>
      <point x="353.898" y="449" type="line"/>
      <point x="414.961" y="449" type="line"/>
    </contour>
    <contour>
      <point x="413" y="1578" type="line"/>
      <point x="219.023" y="1578" type="line"/>
      <point x="413" y="1490.67" type="line"/>
    </contour>
    <contour>
      <point x="383" y="-259" type="line"/>
      <point x="383" y="-179.931" type="line"/>
      <point x="220.142" y="-259" type="line"/>
    </contour>
  </outline>
</glyph>
<glyph name="asciitilde" format="2">
  <advance width="1024"/>
  <unicode hex="007E"/>
  <outline>
    <contour>
      <point x="655" y="732.977" type="line"/>
      <point x="355" y="785.263" type="line"/>
      <point x="355" y="737.023" type="line"/>
      <point x="655" y="684.737" type="line"/>
    </contour>
    <contour>
      <point x="305" y="783.171" type="line"/>
      <point x="120.182" y="738.132" type="line"/>
      <point x="127.54" y="690.059" type="line"/>
      <point x="305" y="735.418" type="line"/>
    </contour>
    <contour>
      <point x="822.69" y="846.143" type="line"/>
      <point x="705" y="742.696" type="line"/>
      <point x="705" y="706.161" type="line"/>
      <point x="832.797" y="805.716" type="line"/>
    </contour>
  </outline>
</glyph>
<glyph name="exclamdown" format="2">
  <advance width="1024"/>
  <unicode hex="00A1"/>
  <outline>
    <contour>
      <point x="647" y="1297" type="line"/>
      <point x="647" y="1495" type="line"/>
      <point x="553" y="1495" type="line"/>
      <point x="553" y="1297" type="line"/>
    </contour>
    <contour>
      <point x="637" y="42" type="line"/>
      <point x="637" y="1010" type="line"/>
      <point x="559" y="1010" type="line"/>
      <point x="559" y="42" type="line"/>
    </contour>
  </outline>
</glyph>
<glyph name="cent" format="2">
  <advance width="1024"/>
  <unicode hex="00A2"/>
  <outline>
    <contour>
      <point x="666" y="-61" type="line"/>
      <point x="666" y="1158" type="line"/>
      <point x="569" y="1158" type="line"/>
      <point x="569" y="-61" type="line"/>
    </contour>
    <contour>
      <point x="835" y="998" type="line"/>
      <point x="189" y="998" type="line"/>
      <point x="189" y="851" type="line"/>
      <point x="835" y="851" type="line"/>
    </contour>
    <contour>
      <point x="343" y="959" type="line"/>
      <point x="191" y="959" type="line"/>
      <point x="191" y="25" type="line"/>
      <point x="343" y="25" type="line"/>
    </contour>
    <contour>
      <point x="829" y="176" type="line"/>
      <point x="297" y="176" type="line"/>
      <point x="297" y="25" type="line"/>
      <point x="829" y="25" type="line"/>
    </contour>
  </outline>
</glyph>
<glyph name="sterling" format="2">
  <advance width="1024"/>
  <unicode hex="00A3"/>
  <outline>
    <contour>
      <point x="647" y="1518" type="line"/>
      <point x="406" y="1518" type="line"/>
      <point x="406" y="1369" type="line"/>
      <point x="647" y="1369" type="line"/>
    </contour>
    <contour>
      <point x="755" y="745" type="line"/>
      <point x="79" y="745" type="line"/>
      <point x="79" y="596" type="line"/>
      <point x="755" y="596" type="line"/>
    </contour>
    <contour>
      <point x="510" y="1517" type="line"/>
      <point x="362" y="1517" type="line"/>
      <point x="362" y="25" type="line"/>
      <point x="510" y="25" type="line"/>
    </contour>
    <contour>
      <point x="863" y="177" type="line"/>
      <point x="187" y="177" type="line"/>
      <point x="187" y="25" type="line"/>
      <point x="863" y="25" type="line"/>
    </contour>
  </outline>
</glyph>
<glyph name="currency" format="2">
  <advance width="1024"/>
  <unicode hex="00A4"/>
  <outline>
    <contour>
      <point x="254" y="1177" type="line"/>
      <point x="104" y="1177" type="line"/>
      <point x="104" y="205" type="line"/>
      <point x="254" y="205" type="line"/>
    </contour>
    <contour>
      <point x="871" y="1179" type="line"/>
      <point x="719" y="1179" type="line"/>
      <point x="719" y="205" type="line"/>
      <point x="871" y="205" type="line"/>
    </contour>
    <contour>
      <point x="763" y="1179" type="line"/>
      <point x="227" y="1179" type="line"/>
      <point x="227" y="1027" type="line"/>
      <point x="763" y="1027" type="line"/>
    </contour>
    <contour>
      <point x="753" y="355" type="line"/>
      <point x="231" y="355" type="line"/>
      <point x="231" y="206" type="line"/>
      <point x="753" y="206" type="line"/>
    </contour>
    <contour>
      <point x="243" y="1331" type="line"/>
      <point x="25" y="1331" type="line"/>
      <point x="25" y="1134" type="line"/>
      <point x="243" y="1134" type="line"/>
    </contour>
    <contour>
      <point x="937" y="1306" type="line"/>
      <point x="723" y="1306" type="line"/>
      <point x="723" y="1109" type="line"/>
      <point x="937" y="1109" type="line"/>
    </contour>
    <contour>
      <point x="249" y="341" type="line"/>
      <point x="35" y="341" type="line"/>
      <point x="35" y="144" type="line"/>
      <point x="249" y="144" type="line"/>
    </contour>
    <contour>
      <point x="919" y="346" type="line"/>
      <point x="705" y="346" type="line"/>
      <point x="705" y="149" type="line"/>
      <point x="919" y="149" type="line"/>
    </contour>
  </outline>
</glyph>
<glyph name="yen" format="2">
  <advance width="1024"/>
  <unicode hex="00A5"/>
  <outline>
    <contour>
      <point x="749" y="750" type="line"/>
      <point x="253" y="750" type="line"/>
      <point x="253" y="640" type="line"/>
      <point x="749" y="640" type="line"/>
    </contour>
    <contour>
      <point x="749" y="515" type="line"/>
      <point x="253" y="515" type="line"/>
      <point x="253" y="405" type="line"/>
      <point x="749" y="405" type="line"/>
    </contour>
    <contour>
      <point x="588" y="872" type="line"/>
      <point x="436" y="872" type="line"/>
      <point x="436" y="25" type="line"/>
      <point x="588" y="25" type="line"/>
    </contour>
    <contour>
      <point x="335" y="1523" type="line"/>
      <point x="185" y="1523" type="line"/>
      <point x="185" y="884" type="line"/>
      <point x="335" y="884" type="line"/>
    </contour>
    <contour>
      <point x="839" y="1523" type="line"/>
      <point x="690" y="1523" type="line"/>
      <point x="690" y="884" type="line"/>
      <point x="839" y="884" type="line"/>
    </contour>
    <contour>
      <point x="749" y="998" type="line"/>
      <point x="253" y="998" type="line"/>
      <point x="253" y="884" type="line"/>
      <point x="749" y="884" type="line"/>
    </contour>
  </outline>
</glyph>
<glyph name="brokenbar" format="2">
  <advance width="1024"/>
  <unicode hex="00A6"/>
  <outline>
    <contour>
      <point x="536" y="657" type="line"/>
      <point x="536" y="-307" type="line"/>
      <point x="596" y="-307" type="line"/>
      <point x="596" y="657" type="line"/>
    </contour>
    <contour>
      <point x="539" y="1611" type="line"/>
      <point x="539" y="815" type="line"/>
      <point x="599" y="815" type="line"/>
      <point x="599" y="1611" type="line"/>
    </contour>
  </outline>
</glyph>
<glyph name="section" format="2">
  <advance width="1024"/>
  <unicode hex="00A7"/>
  <outline>
    <contour>
      <point x="719" y="1213" type="line"/>
      <point x="171" y="1213" type="line"/>
      <point x="171" y="1060" type="line"/>
      <point x="719" y="1060" type="line"/>
    </contour>
    <contour>
      <point x="323" y="1216" type="line"/>
      <point x="171" y="1216" type="line"/>
      <point x="171" y="630" type="line"/>
      <point x="323" y="630" type="line"/>
    </contour>
    <contour>
      <point x="866" y="-86" type="line"/>
      <point x="208" y="-86" type="line"/>
      <point x="208" y="-235" type="line"/>
      <point x="866" y="-235" type="line"/>
    </contour>
    <contour>
      <point x="751" y="70" type="line"/>
      <point x="751" y="-234" type="line"/>
      <point x="902" y="-234" type="line"/>
      <point x="902" y="70" type="line"/>
    </contour>
    <contour>
      <point x="338.566" y="580" type="line"/>
      <point x="212.284" y="580" type="line"/>
      <point x="735.421" y="120" type="line"/>
      <point x="860.802" y="120" type="line"/>
    </contour>
    <contour>
      <point x="719" y="1601" type="line"/>
      <point x="171" y="1601" type="line"/>
      <point x="171" y="1448" type="line"/>
      <point x="719" y="1448" type="line"/>
    </contour>
    <contour>
      <point x="323" y="1604" type="line"/>
      <point x="171" y="1604" type="line"/>
      <point x="171" y="1262" type="line"/>
      <point x="323" y="1262" type="line"/>
    </contour>
    <contour>
      <point x="857" y="261" type="line"/>
      <point x="199" y="261" type="line"/>
      <point x="199" y="112" type="line"/>
      <point x="857" y="112" type="line"/>
    </contour>
    <contour>
      <point x="742" y="417" type="line"/>
      <point x="742" y="113" type="line"/>
      <point x="893" y="113" type="line"/>
      <point x="893" y="417" type="line"/>
    </contour>
    <contour>
      <point x="335.166" y="1212" type="line"/>
      <point x="194.733" y="1212" type="line"/>
      <point x="729.821" y="467" type="line"/>
      <point x="869.317" y="467" type="line"/>
    </contour>
  </outline>
</glyph>
<glyph name="dieresis" format="2">
  <advance width="1024"/>
  <unicode hex="00A8"/>
  <outline>
    <contour>
      <point x="432" y="1005" type="line"/>
      <point x="370" y="1005" type="line"/>
      <point x="370" y="954" type="line"/>
      <point x="432" y="954" type="line"/>
    </contour>
    <contour>
      <point x="674" y="1005" type="line"/>
      <point x="612" y="1005" type="line"/>
      <point x="612" y="954" type="line"/>
      <point x="674" y="954" type="line"/>
    </contour>
  </outline>
</glyph>
<glyph name="copyright" format="2">
  <advance width="1024"/>
  <unicode hex="00A9"/>
  <outline>
    <contour>
      <point x="192" y="1512" type="line"/>
      <point x="41" y="1512" type="line"/>
      <point x="41" y="25" type="line"/>
      <point x="192" y="25" type="line"/>
    </contour>
    <contour>
      <point x="992" y="1512" type="line"/>
      <point x="839" y="1512" type="line"/>
      <point x="839" y="25" type="line"/>
      <point x="992" y="25" type="line"/>
    </contour>
    <contour>
      <point x="792" y="1512" type="line"/>
      <point x="151" y="1512" type="line"/>
      <point x="151" y="1362" type="line"/>
      <point x="792" y="1362" type="line"/>
    </contour>
    <contour>
      <point x="798" y="179" type="line"/>
      <point x="175" y="179" type="line"/>
      <point x="175" y="25" type="line"/>
      <point x="798" y="25" type="line"/>
    </contour>
    <contour>
      <point x="672" y="1172" type="line"/>
      <point x="287" y="1172" type="line"/>
      <point x="287" y="1021" type="line"/>
      <point x="672" y="1021" type="line"/>
    </contour>
    <contour>
      <point x="407" y="1129" type="line"/>
      <point x="288" y="1129" type="line"/>
      <point x="288" y="365" type="line"/>
      <point x="407" y="365" type="line"/>
    </contour>
    <contour>
      <point x="678" y="470" type="line"/>
      <point x="288" y="470" type="line"/>
      <point x="288" y="319" type="line"/>
      <point x="678" y="319" type="line"/>
    </contour>
  </outline>
</glyph>
<glyph name="ordfeminine" format="2">
  <advance width="1124"/>
  <unicode hex="00AA"/>
  <outline>
    <contour>
      <point x="774" y="1269" type="line"/>
      <point x="168" y="1269" type="line"/>
      <point x="168" y="1119" type="line"/>
      <point x="774" y="1119" type="line"/>
    </contour>
    <contour>
      <point x="855" y="1270" type="line"/>
      <point x="711" y="1270" type="line"/>
      <point x="711" y="346" type="line"/>
      <point x="855" y="346" type="line"/>
    </contour>
    <contour>
      <point x="796" y="869" type="line"/>
      <point x="172" y="869" type="line"/>
      <point x="172" y="720" type="line"/>
      <point x="796" y="720" type="line"/>
    </contour>
    <contour>
      <point x="323.037" y="845" type="line"/>
      <point x="172" y="845" type="line"/>
      <point x="172" y="343" type="line"/>
      <point x="323.037" y="343" type="line"/>
    </contour>
    <contour>
      <point x="860" y="471" type="line"/>
      <point x="170" y="471" type="line"/>
      <point x="170" y="346" type="line"/>
      <point x="860" y="346" type="line"/>
    </contour>
    <contour>
      <point x="945" y="162" type="line"/>
      <point x="77" y="162" type="line"/>
      <point x="77" y="50" type="line"/>
      <point x="945" y="50" type="line"/>
    </contour>
  </outline>
</glyph>
<glyph name="guillemotleft" format="2">
  <advance width="1024"/>
  <unicode hex="00AB"/>
  <outline>
    <contour>
      <point x="478" y="744.472" type="line"/>
      <point x="159" y="593.184" type="line"/>
      <point x="159" y="493.722" type="line"/>
      <point x="478" y="646.738" type="line"/>
    </contour>
    <contour>
      <point x="477" y="257.089" type="line"/>
      <point x="159" y="551.758" type="line"/>
      <point x="159" y="465.11" type="line"/>
      <point x="477" y="178.219" type="line"/>
    </contour>
    <contour>
      <point x="893" y="744.472" type="line"/>
      <point x="574" y="593.184" type="line"/>
      <point x="574" y="493.722" type="line"/>
      <point x="893" y="646.738" type="line"/>
    </contour>
    <contour>
      <point x="892" y="257.089" type="line"/>
      <point x="574" y="551.758" type="line"/>
      <point x="574" y="465.11" type="line"/>
      <point x="892" y="178.219" type="line"/>
    </contour>
  </outline>
</glyph>
<glyph name="logicalnot" format="2">
  <advance width="1024"/>
  <unicode hex="00AC"/>
  <outline>
    <contour>
      <point x="726" y="910" type="line"/>
      <point x="666" y="910" type="line"/>
      <point x="666" y="665" type="line"/>
      <point x="726" y="665" type="line"/>
    </contour>
    <contour>
      <point x="736" y="910" type="line"/>
      <point x="236" y="910" type="line"/>
      <point x="236" y="860" type="line"/>
      <point x="736" y="860" type="line"/>
    </contour>
  </outline>
</glyph>
<glyph name="registered" format="2">
  <advance width="1024"/>
  <unicode hex="00AE"/>
  <outline>
    <contour>
      <point x="432" y="1007" type="line"/>
      <point x="414" y="1007" type="line"/>
      <point x="414" y="526" type="line"/>
      <point x="432" y="526" type="line"/>
    </contour>
    <contour>
      <point x="618" y="1007" type="line"/>
      <point x="439" y="1007" type="line"/>
      <point x="439" y="988" type="line"/>
      <point x="618" y="988" type="line"/>
    </contour>
    <contour>
      <point x="627" y="1007" type="line"/>
      <point x="608" y="1007" type="line"/>
      <point x="608" y="827" type="line"/>
      <point x="627" y="827" type="line"/>
    </contour>
    <contour>
      <point x="623" y="850" type="line"/>
      <point x="435" y="850" type="line"/>
      <point x="435" y="826" type="line"/>
      <point x="623" y="826" type="line"/>
    </contour>
    <contour>
      <point x="511.434" y="784" type="line"/>
      <point x="495.662" y="784" type="line"/>
      <point x="612.171" y="525" type="line"/>
      <point x="638.839" y="525" type="line"/>
    </contour>
    <contour>
      <point x="209" y="1512" type="line"/>
      <point x="58" y="1512" type="line"/>
      <point x="58" y="25" type="line"/>
      <point x="209" y="25" type="line"/>
    </contour>
    <contour>
      <point x="950" y="1512" type="line"/>
      <point x="797" y="1512" type="line"/>
      <point x="797" y="25" type="line"/>
      <point x="950" y="25" type="line"/>
    </contour>
    <contour>
      <point x="792" y="1512" type="line"/>
      <point x="199" y="1512" type="line"/>
      <point x="199" y="1362" type="line"/>
      <point x="792" y="1362" type="line"/>
    </contour>
    <contour>
      <point x="798" y="179" type="line"/>
      <point x="175" y="179" type="line"/>
      <point x="175" y="25" type="line"/>
      <point x="798" y="25" type="line"/>
    </contour>
  </outline>
</glyph>
<glyph name="macron" format="2">
  <advance width="1024"/>
  <unicode hex="00AF"/>
  <outline>
    <contour>
      <point x="780" y="998" type="line"/>
      <point x="270" y="998" type="line"/>
      <point x="270" y="969" type="line"/>
      <point x="780" y="969" type="line"/>
    </contour>
  </outline>
</glyph>
<glyph name="degree" format="2">
  <advance width="1024"/>
  <unicode hex="00B0"/>
  <outline>
    <contour>
      <point x="442" y="1481" type="line"/>
      <point x="640" y="1481" type="line"/>
      <point x="640" y="1301" type="line"/>
      <point x="442" y="1301" type="line"/>
    </contour>
    <contour>
      <point x="697" y="1523" type="line"/>
      <point x="387" y="1523" type="line"/>
      <point x="387" y="1263" type="line"/>
      <point x="697" y="1263" type="line"/>
    </contour>
  </outline>
</glyph>
<glyph name="plusminus" format="2">
  <advance width="1024"/>
  <unicode hex="00B1"/>
  <outline>
    <contour>
      <point x="900" y="83" type="line"/>
      <point x="124" y="83" type="line"/>
      <point x="124" y="-75" type="line"/>
      <point x="900" y="-75" type="line"/>
    </contour>
    <contour>
      <point x="584" y="1196" type="line"/>
      <point x="409" y="1196" type="line"/>
      <point x="409" y="190" type="line"/>
      <point x="584" y="190" type="line"/>
    </contour>
    <contour>
      <point x="938" y="796" type="line"/>
      <point x="86" y="796" type="line"/>
      <point x="86" y="638" type="line"/>
      <point x="938" y="638" type="line"/>
    </contour>
  </outline>
</glyph>
<glyph name="uni00B2" format="2">
  <advance width="1024"/>
  <unicode hex="00B2"/>
  <outline>
    <contour>
      <point x="250" y="1523" type="line"/>
      <point x="250" y="1480" type="line"/>
      <point x="598" y="1480" type="line"/>
      <point x="598" y="1234" type="line"/>
      <point x="254" y="1234" type="line"/>
      <point x="254" y="876" type="line"/>
      <point x="653" y="876" type="line"/>
      <point x="653" y="915" type="line"/>
      <point x="320" y="915" type="line"/>
      <point x="320" y="1193" type="line"/>
      <point x="662" y="1193" type="line"/>
      <point x="662" y="1523" type="line"/>
    </contour>
  </outline>
</glyph>
<glyph name="uni00B3" format="2">
  <advance width="1024"/>
  <unicode hex="00B3"/>
  <outline>
    <contour>
      <point x="218" y="1273" type="line"/>
      <point x="218" y="1240" type="line"/>
      <point x="670" y="1240" type="line"/>
      <point x="670" y="965" type="line"/>
      <point x="189" y="965" type="line"/>
      <point x="189" y="933" type="line"/>
      <point x="760" y="933" type="line"/>
      <point x="760" y="1528" type="line"/>
      <point x="210" y="1528" type="line"/>
      <point x="210" y="1496" type="line"/>
      <point x="669" y="1496" type="line"/>
      <point x="669" y="1273" type="line"/>
    </contour>
  </outline>
</glyph>
<glyph name="acute" format="2">
  <advance width="1024"/>
  <unicode hex="00B4"/>
  <outline>
    <contour>
      <point x="577.263" y="1500.04" type="line"/>
      <point x="532.921" y="1522.46" type="line"/>
      <point x="425.549" y="1312.67" type="line"/>
      <point x="469.267" y="1289.82" type="line"/>
    </contour>
  </outline>
</glyph>
<glyph name="mu" format="2">
  <advance width="1024"/>
  <unicode hex="00B5"/>
  <outline>
    <contour>
      <point x="816" y="910" type="line"/>
      <point x="756" y="910" type="line"/>
      <point x="756" y="25" type="line"/>
      <point x="816" y="25" type="line"/>
    </contour>
    <contour>
      <point x="786" y="95" type="line"/>
      <point x="321" y="95" type="line"/>
      <point x="321" y="25" type="line"/>
      <point x="786" y="25" type="line"/>
    </contour>
    <contour>
      <point x="266" y="910" type="line"/>
      <point x="221" y="910" type="line"/>
      <point x="221" y="-405" type="line"/>
      <point x="266" y="-405" type="line"/>
    </contour>
  </outline>
</glyph>
<glyph name="paragraph" format="2">
  <advance width="1024"/>
  <unicode hex="00B6"/>
  <outline>
    <contour>
      <point x="576" y="1105" type="line"/>
      <point x="61" y="1105" type="line"/>
      <point x="61" y="1010" type="line"/>
      <point x="576" y="1010" type="line"/>
    </contour>
    <contour>
      <point x="171" y="1523" type="line"/>
      <point x="61" y="1523" type="line"/>
      <point x="61" y="1025" type="line"/>
      <point x="171" y="1025" type="line"/>
    </contour>
    <contour>
      <point x="831" y="1523" type="line"/>
      <point x="61" y="1523" type="line"/>
      <point x="61" y="1460" type="line"/>
      <point x="831" y="1460" type="line"/>
    </contour>
    <contour>
      <point x="626" y="1523" type="line"/>
      <point x="531" y="1523" type="line"/>
      <point x="531" y="25" type="line"/>
      <point x="626" y="25" type="line"/>
    </contour>
    <contour>
      <point x="856" y="1523" type="line"/>
      <point x="801" y="1523" type="line"/>
      <point x="801" y="25" type="line"/>
      <point x="856" y="25" type="line"/>
    </contour>
  </outline>
</glyph>
<glyph name="periodcentered" format="2">
  <advance width="1024"/>
  <unicode hex="00B7"/>
  <outline>
    <contour>
      <point x="619" y="1121" type="line"/>
      <point x="404" y="1121" type="line"/>
      <point x="404" y="924" type="line"/>
      <point x="619" y="924" type="line"/>
    </contour>
  </outline>
</glyph>
<glyph name="cedilla" format="2">
  <advance width="1024"/>
  <unicode hex="00B8"/>
  <outline>
    <contour>
      <point x="432" y="217" type="line"/>
      <point x="326" y="217" type="line"/>
      <point x="326" y="-57" type="line"/>
      <point x="432" y="-57" type="line"/>
    </contour>
    <contour>
      <point x="723" y="-251" type="line"/>
      <point x="327" y="-251" type="line"/>
      <point x="327" y="-321" type="line"/>
      <point x="723" y="-321" type="line"/>
    </contour>
    <contour>
      <point x="723" y="37" type="line"/>
      <point x="621" y="37" type="line"/>
      <point x="621" y="-285" type="line"/>
      <point x="723" y="-285" type="line"/>
    </contour>
    <contour>
      <point x="723" y="37" type="line"/>
      <point x="327" y="37" type="line"/>
      <point x="327" y="-69" type="line"/>
      <point x="723" y="-69" type="line"/>
    </contour>
  </outline>
</glyph>
<glyph name="uni00B9" format="2">
  <advance width="1024"/>
  <unicode hex="00B9"/>
  <outline>
    <contour>
      <point x="535.75" y="1636" type="line"/>
      <point x="535.75" y="912" type="line"/>
      <point x="585.25" y="912" type="line"/>
      <point x="585.25" y="1636" type="line"/>
    </contour>
    <contour>
      <point x="553.019" y="1604.47" type="line"/>
      <point x="519.715" y="1626.45" type="line"/>
      <point x="448.449" y="1519.91" type="line"/>
      <point x="481.817" y="1497.67" type="line"/>
    </contour>
  </outline>
</glyph>
<glyph name="ordmasculine" format="2">
  <advance width="1124"/>
  <unicode hex="00BA"/>
  <outline>
    <contour>
      <point x="255.372" y="973" type="line"/>
      <point x="104" y="973" type="line"/>
      <point x="104" y="50" type="line"/>
      <point x="255.372" y="50" type="line"/>
    </contour>
    <contour>
      <point x="921" y="973" type="line"/>
      <point x="768.561" y="973" type="line"/>
      <point x="768.561" y="50" type="line"/>
      <point x="921" y="50" type="line"/>
    </contour>
    <contour>
      <point x="813" y="973" type="line"/>
      <point x="227" y="973" type="line"/>
      <point x="227" y="822" type="line"/>
      <point x="813" y="822" type="line"/>
    </contour>
    <contour>
      <point x="803" y="175" type="line"/>
      <point x="231" y="175" type="line"/>
      <point x="231" y="50" type="line"/>
      <point x="803" y="50" type="line"/>
    </contour>
    <contour>
      <point x="1019" y="-70" type="line"/>
      <point x="-5" y="-70" type="line"/>
      <point x="-5" y="-86" type="line"/>
      <point x="1019" y="-86" type="line"/>
    </contour>
  </outline>
</glyph>
<glyph name="guillemotright" format="2">
  <advance width="1024"/>
  <unicode hex="00BB"/>
  <outline>
    <contour>
      <point x="895" y="493.722" type="line"/>
      <point x="895" y="593.184" type="line"/>
      <point x="576" y="744.472" type="line"/>
      <point x="576" y="646.738" type="line"/>
    </contour>
    <contour>
      <point x="895" y="465.11" type="line"/>
      <point x="895" y="551.758" type="line"/>
      <point x="577" y="257.089" type="line"/>
      <point x="577" y="178.219" type="line"/>
    </contour>
    <contour>
      <point x="480" y="493.722" type="line"/>
      <point x="480" y="593.184" type="line"/>
      <point x="161" y="744.472" type="line"/>
      <point x="161" y="646.738" type="line"/>
    </contour>
    <contour>
      <point x="480" y="465.11" type="line"/>
      <point x="480" y="551.758" type="line"/>
      <point x="162" y="257.089" type="line"/>
      <point x="162" y="178.219" type="line"/>
    </contour>
  </outline>
</glyph>
<glyph name="onequarter" format="2">
  <advance width="1024"/>
  <unicode hex="00BC"/>
  <outline>
    <contour>
      <point x="732.093" y="1455" type="line"/>
      <point x="682.941" y="1455" type="line"/>
      <point x="115.907" y="35" type="line"/>
      <point x="165.059" y="35" type="line"/>
    </contour>
    <contour>
      <point x="332" y="1523" type="line"/>
      <point x="332" y="1070" type="line"/>
      <point x="397" y="1070" type="line"/>
      <point x="397" y="1523" type="line"/>
    </contour>
    <contour>
      <point x="593" y="745" type="line"/>
      <point x="593" y="404" type="line"/>
      <point x="867" y="404" type="line"/>
      <point x="867" y="32" type="line"/>
      <point x="907" y="32" type="line"/>
      <point x="907" y="743" type="line"/>
      <point x="867" y="743" type="line"/>
      <point x="867" y="443" type="line"/>
      <point x="633" y="443" type="line"/>
      <point x="633" y="745" type="line"/>
    </contour>
  </outline>
</glyph>
<glyph name="onehalf" format="2">
  <advance width="1024"/>
  <unicode hex="00BD"/>
  <outline>
    <contour>
      <point x="846.019" y="1428.4" type="line"/>
      <point x="718.721" y="1454.29" type="line"/>
      <point x="166.981" y="24.6045" type="line"/>
      <point x="294.279" y="-1.28662" type="line"/>
    </contour>
    <contour>
      <point x="323" y="1523" type="line"/>
      <point x="323" y="888" type="line"/>
      <point x="356" y="888" type="line"/>
      <point x="356" y="1523" type="line"/>
    </contour>
    <contour>
      <point x="328.085" y="1498.78" type="line"/>
      <point x="307.29" y="1512.87" type="line"/>
      <point x="251.706" y="1425.42" type="line"/>
      <point x="272.94" y="1410.01" type="line"/>
    </contour>
    <contour>
      <point x="679" y="668" type="line"/>
      <point x="679" y="628" type="line"/>
      <point x="878" y="628" type="line"/>
      <point x="878" y="382" type="line"/>
      <point x="681" y="382" type="line"/>
      <point x="681" y="25" type="line"/>
      <point x="888" y="25" type="line"/>
      <point x="888" y="65" type="line"/>
      <point x="697" y="65" type="line"/>
      <point x="697" y="342" type="line"/>
      <point x="893" y="342" type="line"/>
      <point x="893" y="668" type="line"/>
    </contour>
  </outline>
</glyph>
<glyph name="threequarters" format="2">
  <advance width="1024"/>
  <unicode hex="00BE"/>
  <outline>
    <contour>
      <point x="858.689" y="1395.72" type="line"/>
      <point x="717.306" y="1450.62" type="line"/>
      <point x="165.311" y="20.2767" type="line"/>
      <point x="306.694" y="-34.6217" type="line"/>
    </contour>
    <contour>
      <point x="102" y="1315" type="line"/>
      <point x="102" y="1297" type="line"/>
      <point x="380" y="1297" type="line"/>
      <point x="380" y="1059" type="line"/>
      <point x="84" y="1059" type="line"/>
      <point x="84" y="1040" type="line"/>
      <point x="416" y="1040" type="line"/>
      <point x="416" y="1528" type="line"/>
      <point x="97" y="1528" type="line"/>
      <point x="97" y="1509" type="line"/>
      <point x="379" y="1509" type="line"/>
      <point x="379" y="1315" type="line"/>
    </contour>
    <contour>
      <point x="668" y="664" type="line"/>
      <point x="668" y="365" type="line"/>
      <point x="933" y="365" type="line"/>
      <point x="933" y="32" type="line"/>
      <point x="964" y="32" type="line"/>
      <point x="964" y="662" type="line"/>
      <point x="932" y="662" type="line"/>
      <point x="932" y="403" type="line"/>
      <point x="700" y="403" type="line"/>
      <point x="700" y="664" type="line"/>
    </contour>
  </outline>
</glyph>
<glyph name="questiondown" format="2">
  <advance width="1024"/>
  <unicode hex="00BF"/>
  <outline>
    <contour>
      <point x="630" y="1494" type="line"/>
      <point x="430" y="1494" type="line"/>
      <point x="430" y="1297.1" type="line"/>
      <point x="630" y="1297.9" type="line"/>
    </contour>
    <contour>
      <point x="220" y="25" type="line"/>
      <point x="807" y="25" type="line"/>
      <point x="807" y="161" type="line"/>
      <point x="220" y="161" type="line"/>
    </contour>
    <contour>
      <point x="216" y="30" type="line"/>
      <point x="360" y="30" type="line"/>
      <point x="360" y="528" type="line"/>
      <point x="216" y="528" type="line"/>
    </contour>
    <contour>
      <point x="216" y="529" type="line"/>
      <point x="630" y="529" type="line"/>
      <point x="630" y="678" type="line"/>
      <point x="216" y="678" type="line"/>
    </contour>
    <contour>
      <point x="432" y="533" type="line"/>
      <point x="630" y="533" type="line"/>
      <point x="630" y="1102" type="line"/>
      <point x="432" y="1102" type="line"/>
    </contour>
  </outline>
</glyph>
<glyph name="AE" format="2">
  <advance width="1124"/>
  <unicode hex="00C6"/>
  <outline>
    <contour>
      <point x="996" y="185" type="line"/>
      <point x="687.769" y="185" type="line"/>
      <point x="687.769" y="50" type="line"/>
      <point x="996" y="50" type="line"/>
    </contour>
    <contour>
      <point x="125" y="1498" type="line"/>
      <point x="125" y="50" type="line"/>
      <point x="274" y="50" type="line"/>
      <point x="274" y="1498" type="line"/>
    </contour>
    <contour>
      <point x="186" y="1498" type="line"/>
      <point x="186" y="1332" type="line"/>
      <point x="974" y="1332" type="line"/>
      <point x="974" y="1498" type="line"/>
    </contour>
    <contour>
      <point x="922" y="998" type="line"/>
      <point x="204" y="998" type="line"/>
      <point x="204" y="874" type="line"/>
      <point x="922" y="874" type="line"/>
    </contour>
    <contour>
      <point x="578.352" y="1498" type="line"/>
      <point x="578.352" y="50" type="line"/>
      <point x="751" y="50" type="line"/>
      <point x="751" y="1498" type="line"/>
    </contour>
  </outline>
</glyph>
<glyph name="multiply" format="2">
  <advance width="1024"/>
  <unicode hex="00D7"/>
  <outline>
    <contour>
      <point x="741.868" y="1298" type="line"/>
      <point x="136.063" y="327" type="line"/>
      <point x="278.109" y="327" type="line"/>
      <point x="882.012" y="1298" type="line"/>
    </contour>
    <contour>
      <point x="281.112" y="1300" type="line"/>
      <point x="138.11" y="1300" type="line"/>
      <point x="748.854" y="323" type="line"/>
      <point x="889.002" y="323" type="line"/>
    </contour>
  </outline>
</glyph>
<glyph name="Oslash" format="2">
  <advance width="1124"/>
  <unicode hex="00D8"/>
  <outline>
    <contour>
      <point x="959.186" y="1556.84" type="line"/>
      <point x="817.847" y="1611.73" type="line"/>
      <point x="35" y="-7.84375" type="line"/>
      <point x="176.339" y="-62.7256" type="line"/>
    </contour>
    <contour>
      <point x="252.593" y="1487" type="line"/>
      <point x="101.593" y="1487" type="line"/>
      <point x="101.593" y="50" type="line"/>
      <point x="252.593" y="50" type="line"/>
    </contour>
    <contour>
      <point x="901.593" y="1487" type="line"/>
      <point x="748.593" y="1487" type="line"/>
      <point x="748.593" y="50" type="line"/>
      <point x="901.593" y="50" type="line"/>
    </contour>
    <contour>
      <point x="808.593" y="1487" type="line"/>
      <point x="165.593" y="1487" type="line"/>
      <point x="165.593" y="1337" type="line"/>
      <point x="808.593" y="1337" type="line"/>
    </contour>
    <contour>
      <point x="814.593" y="204" type="line"/>
      <point x="141.593" y="204" type="line"/>
      <point x="141.593" y="50" type="line"/>
      <point x="814.593" y="50" type="line"/>
    </contour>
  </outline>
</glyph>
<glyph name="Thorn" format="2">
  <advance width="1124"/>
  <unicode hex="00DE"/>
  <outline>
    <contour>
      <point x="252" y="1492" type="line"/>
      <point x="112" y="1492" type="line"/>
      <point x="112" y="59" type="line"/>
      <point x="252" y="59" type="line"/>
    </contour>
    <contour>
      <point x="847" y="1184" type="line"/>
      <point x="191" y="1184" type="line"/>
      <point x="191" y="1035" type="line"/>
      <point x="847" y="1035" type="line"/>
    </contour>
    <contour>
      <point x="867" y="1183" type="line"/>
      <point x="717" y="1183" type="line"/>
      <point x="717" y="594" type="line"/>
      <point x="867" y="594" type="line"/>
    </contour>
    <contour>
      <point x="866" y="659" type="line"/>
      <point x="179" y="659" type="line"/>
      <point x="179" y="534" type="line"/>
      <point x="866" y="534" type="line"/>
    </contour>
  </outline>
</glyph>
<glyph name="germandbls" format="2">
  <advance width="1124"/>
  <unicode hex="00DF"/>
  <outline>
    <contour>
      <point x="219" y="1171" type="line"/>
      <point x="18" y="1171" type="line"/>
      <point x="18" y="1023" type="line"/>
      <point x="219" y="1023" type="line"/>
    </contour>
    <contour>
      <point x="374.561" y="1498" type="line"/>
      <point x="204" y="1498" type="line"/>
      <point x="204" y="50" type="line"/>
      <point x="374.561" y="50" type="line"/>
    </contour>
    <contour>
      <point x="805" y="1498" type="line"/>
      <point x="432.125" y="1498" type="line"/>
      <point x="432.125" y="1328" type="line"/>
      <point x="805" y="1328" type="line"/>
    </contour>
    <contour>
      <point x="889" y="1498" type="line"/>
      <point x="740" y="1498" type="line"/>
      <point x="740" y="1023" type="line"/>
      <point x="889" y="1023" type="line"/>
    </contour>
    <contour>
      <point x="690" y="826" type="line"/>
      <point x="690" y="1012" type="line"/>
      <point x="524.229" y="1012" type="line"/>
      <point x="524.229" y="826" type="line"/>
    </contour>
    <contour>
      <point x="890" y="798" type="line"/>
      <point x="740" y="798" type="line"/>
      <point x="740" y="225" type="line"/>
      <point x="890" y="225" type="line"/>
    </contour>
    <contour>
      <point x="890" y="251" type="line"/>
      <point x="589.853" y="251" type="line"/>
      <point x="589.853" y="90" type="line"/>
      <point x="890" y="90" type="line"/>
    </contour>
  </outline>
</glyph>
<glyph name="ae" format="2">
  <advance width="1124"/>
  <unicode hex="00E6"/>
  <outline>
    <contour>
      <point x="867" y="973" type="line"/>
      <point x="48" y="973" type="line"/>
      <point x="48" y="824" type="line"/>
      <point x="867" y="824" type="line"/>
    </contour>
    <contour>
      <point x="630.454" y="973" type="line"/>
      <point x="468.43" y="973" type="line"/>
      <point x="468.43" y="50" type="line"/>
      <point x="630.454" y="50" type="line"/>
    </contour>
    <contour>
      <point x="868" y="574" type="line"/>
      <point x="71" y="574" type="line"/>
      <point x="71" y="425" type="line"/>
      <point x="868" y="425" type="line"/>
    </contour>
    <contour>
      <point x="222" y="550" type="line"/>
      <point x="71" y="550" type="line"/>
      <point x="71" y="50" type="line"/>
      <point x="222" y="50" type="line"/>
    </contour>
    <contour>
      <point x="989" y="201" type="line"/>
      <point x="69" y="201" type="line"/>
      <point x="69" y="50" type="line"/>
      <point x="989" y="50" type="line"/>
    </contour>
    <contour>
      <point x="968" y="973" type="line"/>
      <point x="823" y="973" type="line"/>
      <point x="823" y="425" type="line"/>
      <point x="968" y="425" type="line"/>
    </contour>
  </outline>
</glyph>
<glyph name="eth" format="2">
  <advance width="1124"/>
  <unicode hex="00F0"/>
  <outline>
    <contour>
      <point x="403.089" y="1498" type="line"/>
      <point x="249.328" y="1498" type="line"/>
      <point x="735.761" y="50" type="line"/>
      <point x="884.672" y="50" type="line"/>
    </contour>
    <contour>
      <point x="552.445" y="973" type="line"/>
      <point x="228" y="973" type="line"/>
      <point x="228" y="822" type="line"/>
      <point x="552.445" y="822" type="line"/>
    </contour>
    <contour>
      <point x="283" y="973" type="line"/>
      <point x="132" y="973" type="line"/>
      <point x="132" y="50" type="line"/>
      <point x="283" y="50" type="line"/>
    </contour>
    <contour>
      <point x="845" y="195" type="line"/>
      <point x="228" y="195" type="line"/>
      <point x="228" y="50" type="line"/>
      <point x="845" y="50" type="line"/>
    </contour>
    <contour>
      <point x="693" y="1366" type="line"/>
      <point x="161" y="1366" type="line"/>
      <point x="161" y="1229" type="line"/>
      <point x="693" y="1229" type="line"/>
    </contour>
  </outline>
</glyph>
<glyph name="oslash" format="2">
  <advance width="1124"/>
  <unicode hex="00F8"/>
  <outline>
    <contour>
      <point x="978.08" y="1037.04" type="line"/>
      <point x="858.062" y="1109.2" type="line"/>
      <point x="9" y="23.8721" type="line"/>
      <point x="128.122" y="-48.1895" type="line"/>
    </contour>
    <contour>
      <point x="243.068" y="973" type="line"/>
      <point x="93.0684" y="973" type="line"/>
      <point x="93.0684" y="50" type="line"/>
      <point x="243.068" y="50" type="line"/>
    </contour>
    <contour>
      <point x="910.068" y="973" type="line"/>
      <point x="758.068" y="973" type="line"/>
      <point x="758.068" y="50" type="line"/>
      <point x="910.068" y="50" type="line"/>
    </contour>
    <contour>
      <point x="802.068" y="973" type="line"/>
      <point x="216.068" y="973" type="line"/>
      <point x="216.068" y="822" type="line"/>
      <point x="802.068" y="822" type="line"/>
    </contour>
    <contour>
      <point x="792.068" y="200" type="line"/>
      <point x="220.068" y="200" type="line"/>
      <point x="220.068" y="50" type="line"/>
      <point x="792.068" y="50" type="line"/>
    </contour>
  </outline>
</glyph>
<glyph name="thorn" format="2">
  <advance width="1124"/>
  <unicode hex="00FE"/>
  <outline>
    <contour>
      <point x="323" y="984" type="line"/>
      <point x="173" y="984" type="line"/>
      <point x="173" y="-356" type="line"/>
      <point x="323" y="-356" type="line"/>
    </contour>
    <contour>
      <point x="916" y="642" type="line"/>
      <point x="360" y="642" type="line"/>
      <point x="360" y="493" type="line"/>
      <point x="916" y="493" type="line"/>
    </contour>
    <contour>
      <point x="914" y="6" type="line"/>
      <point x="368" y="6" type="line"/>
      <point x="368" y="-145" type="line"/>
      <point x="914" y="-145" type="line"/>
    </contour>
    <contour>
      <point x="914" y="572" type="line"/>
      <point x="766" y="572" type="line"/>
      <point x="766" y="-54" type="line"/>
      <point x="914" y="-54" type="line"/>
    </contour>
  </outline>
</glyph>
<glyph name="dcaron" format="2">
  <advance width="1124"/>
  <unicode hex="010F"/>
  <outline>
    <contour>
      <point x="814" y="1477" type="line"/>
      <point x="652.729" y="1477" type="line"/>
      <point x="652.729" y="50" type="line"/>
      <point x="814" y="50" type="line"/>
    </contour>
    <contour>
      <point x="696.66" y="973" type="line"/>
      <point x="149" y="973" type="line"/>
      <point x="149" y="822" type="line"/>
      <point x="696.66" y="822" type="line"/>
    </contour>
    <contour>
      <point x="204" y="973" type="line"/>
      <point x="53" y="973" type="line"/>
      <point x="53" y="50" type="line"/>
      <point x="204" y="50" type="line"/>
    </contour>
    <contour>
      <point x="766" y="195" type="line"/>
      <point x="149" y="195" type="line"/>
      <point x="149" y="50" type="line"/>
      <point x="766" y="50" type="line"/>
    </contour>
    <contour>
      <point x="990" y="1446" type="line"/>
      <point x="910" y="1446" type="line"/>
      <point x="910" y="1264" type="line"/>
      <point x="990" y="1264" type="line"/>
    </contour>
  </outline>
</glyph>
<glyph name="Dcroat" format="2">
  <advance width="1124"/>
  <unicode hex="0110"/>
  <outline>
    <contour>
      <point x="450.065" y="910" type="line"/>
      <point x="0" y="910" type="line"/>
      <point x="0" y="755" type="line"/>
      <point x="450.065" y="755" type="line"/>
    </contour>
    <contour>
      <point x="260.768" y="1498" type="line"/>
      <point x="107" y="1498" type="line"/>
      <point x="107" y="50" type="line"/>
      <point x="260.768" y="50" type="line"/>
    </contour>
    <contour>
      <point x="916" y="1013.26" type="line"/>
      <point x="458" y="1466.98" type="line"/>
      <point x="458" y="1343.05" type="line"/>
      <point x="916" y="836.356" type="line"/>
    </contour>
    <contour>
      <point x="913" y="929.256" type="line"/>
      <point x="467.068" y="206.781" type="line"/>
      <point x="467.068" y="101.599" type="line"/>
      <point x="913" y="776.06" type="line"/>
    </contour>
    <contour>
      <point x="401.324" y="1498" type="line"/>
      <point x="274.37" y="1498" type="line"/>
      <point x="274.37" y="1349" type="line"/>
      <point x="401.324" y="1349" type="line"/>
    </contour>
    <contour>
      <point x="410.392" y="200" type="line"/>
      <point x="283.438" y="200" type="line"/>
      <point x="283.438" y="50" type="line"/>
      <point x="410.392" y="50" type="line"/>
    </contour>
  </outline>
</glyph>
<glyph name="dcroat" format="2">
  <advance width="1124"/>
  <unicode hex="0111"/>
  <outline>
    <contour>
      <point x="893" y="1477" type="line"/>
      <point x="740.273" y="1477" type="line"/>
      <point x="740.273" y="50" type="line"/>
      <point x="893" y="50" type="line"/>
    </contour>
    <contour>
      <point x="781" y="973" type="line"/>
      <point x="228" y="973" type="line"/>
      <point x="228" y="822" type="line"/>
      <point x="781" y="822" type="line"/>
    </contour>
    <contour>
      <point x="283" y="973" type="line"/>
      <point x="132" y="973" type="line"/>
      <point x="132" y="50" type="line"/>
      <point x="283" y="50" type="line"/>
    </contour>
    <contour>
      <point x="845" y="195" type="line"/>
      <point x="228" y="195" type="line"/>
      <point x="228" y="50" type="line"/>
      <point x="845" y="50" type="line"/>
    </contour>
    <contour>
      <point x="999" y="1353" type="line"/>
      <point x="582.227" y="1353" type="line"/>
      <point x="582.227" y="1202" type="line"/>
      <point x="999" y="1202" type="line"/>
    </contour>
  </outline>
</glyph>
<glyph name="uni0123" format="2">
  <advance width="1074"/>
  <unicode hex="0123"/>
  <outline>
    <contour>
      <point x="439" y="973" type="line"/>
      <point x="297" y="973" type="line"/>
      <point x="297" y="50" type="line"/>
      <point x="439" y="50" type="line"/>
    </contour>
    <contour>
      <point x="803" y="973" type="line"/>
      <point x="337" y="973" type="line"/>
      <point x="337" y="823" type="line"/>
      <point x="803" y="823" type="line"/>
    </contour>
    <contour>
      <point x="825" y="973" type="line"/>
      <point x="681" y="973" type="line"/>
      <point x="681" y="-361" type="line"/>
      <point x="825" y="-361" type="line"/>
    </contour>
    <contour>
      <point x="767" y="198" type="line"/>
      <point x="360" y="198" type="line"/>
      <point x="360" y="50" type="line"/>
      <point x="767" y="50" type="line"/>
    </contour>
    <contour>
      <point x="776" y="-214" type="line"/>
      <point x="291" y="-214" type="line"/>
      <point x="291" y="-363" type="line"/>
      <point x="776" y="-363" type="line"/>
    </contour>
    <contour>
      <point x="527" y="1446" type="line"/>
      <point x="447" y="1446" type="line"/>
      <point x="447" y="1198" type="line"/>
      <point x="527" y="1198" type="line"/>
    </contour>
  </outline>
</glyph>
<glyph name="Hbar" format="2">
  <advance width="1124"/>
  <unicode hex="0126"/>
  <outline>
    <contour>
      <point x="239" y="1487" type="line"/>
      <point x="89" y="1487" type="line"/>
      <point x="89" y="50" type="line"/>
      <point x="239" y="50" type="line"/>
    </contour>
    <contour>
      <point x="885" y="1487" type="line"/>
      <point x="725" y="1487" type="line"/>
      <point x="725" y="50" type="line"/>
      <point x="885" y="50" type="line"/>
    </contour>
    <contour>
      <point x="755" y="998" type="line"/>
      <point x="209" y="998" type="line"/>
      <point x="209" y="843" type="line"/>
      <point x="755" y="843" type="line"/>
    </contour>
    <contour>
      <point x="953" y="1384" type="line"/>
      <point x="28" y="1384" type="line"/>
      <point x="28" y="1226" type="line"/>
      <point x="953" y="1226" type="line"/>
    </contour>
  </outline>
</glyph>
<glyph name="hbar" format="2">
  <advance width="1124"/>
  <unicode hex="0127"/>
  <outline>
    <contour>
      <point x="331.439" y="1487" type="line"/>
      <point x="174" y="1487" type="line"/>
      <point x="174" y="56" type="line"/>
      <point x="331.439" y="56" type="line"/>
    </contour>
    <contour>
      <point x="842" y="973" type="line"/>
      <point x="316.035" y="973" type="line"/>
      <point x="316.035" y="826" type="line"/>
      <point x="842" y="826" type="line"/>
    </contour>
    <contour>
      <point x="850" y="973" type="line"/>
      <point x="701" y="973" type="line"/>
      <point x="701" y="50" type="line"/>
      <point x="850" y="50" type="line"/>
    </contour>
    <contour>
      <point x="473.621" y="1379" type="line"/>
      <point x="38" y="1379" type="line"/>
      <point x="38" y="1221" type="line"/>
      <point x="473.621" y="1221" type="line"/>
    </contour>
  </outline>
</glyph>
<glyph name="dotlessi" format="2">
  <advance width="1124"/>
  <unicode hex="0131"/>
  <outline>
    <contour>
      <point x="606.955" y="968" type="line"/>
      <point x="417.045" y="968" type="line"/>
      <point x="417.045" y="189" type="line"/>
      <point x="606.955" y="189" type="line"/>
    </contour>
    <contour>
      <point x="883" y="204" type="line"/>
      <point x="141" y="204" type="line"/>
      <point x="141" y="56" type="line"/>
      <point x="883" y="56" type="line"/>
    </contour>
    <contour>
      <point x="549.482" y="968" type="line"/>
      <point x="191" y="968" type="line"/>
      <point x="191" y="818" type="line"/>
      <point x="549.482" y="818" type="line"/>
    </contour>
  </outline>
</glyph>
<glyph name="Lcaron" format="2">
  <advance width="1124"/>
  <unicode hex="013D"/>
  <outline>
    <contour>
      <point x="201" y="1492" type="line"/>
      <point x="53" y="1492" type="line"/>
      <point x="53" y="50" type="line"/>
      <point x="201" y="50" type="line"/>
    </contour>
    <contour>
      <point x="888" y="202" type="line"/>
      <point x="162" y="202" type="line"/>
      <point x="162" y="50" type="line"/>
      <point x="888" y="50" type="line"/>
    </contour>
    <contour>
      <point x="565.885" y="1446" type="line"/>
      <point x="472.256" y="1446" type="line"/>
      <point x="472.256" y="1264" type="line"/>
      <point x="565.885" y="1264" type="line"/>
    </contour>
  </outline>
</glyph>
<glyph name="lcaron" format="2">
  <advance width="1074"/>
  <unicode hex="013E"/>
  <outline>
    <contour>
      <point x="717" y="209" type="line"/>
      <point x="133" y="209" type="line"/>
      <point x="133" y="59" type="line"/>
      <point x="717" y="59" type="line"/>
    </contour>
    <contour>
      <point x="500" y="1498" type="line"/>
      <point x="350" y="1498" type="line"/>
      <point x="350" y="136" type="line"/>
      <point x="500" y="136" type="line"/>
    </contour>
    <contour>
      <point x="379" y="1498" type="line"/>
      <point x="194" y="1498" type="line"/>
      <point x="194" y="1349" type="line"/>
      <point x="379" y="1349" type="line"/>
    </contour>
    <contour>
      <point x="710" y="1446" type="line"/>
      <point x="630" y="1446" type="line"/>
      <point x="630" y="1264" type="line"/>
      <point x="710" y="1264" type="line"/>
    </contour>
  </outline>
</glyph>
<glyph name="Lslash" format="2">
  <advance width="1124"/>
  <unicode hex="0141"/>
  <outline>
    <contour>
      <point x="316.355" y="1492" type="line"/>
      <point x="162.787" y="1492" type="line"/>
      <point x="162.787" y="50" type="line"/>
      <point x="316.355" y="50" type="line"/>
    </contour>
    <contour>
      <point x="997.787" y="202" type="line"/>
      <point x="272.926" y="202" type="line"/>
      <point x="272.926" y="50" type="line"/>
      <point x="997.787" y="50" type="line"/>
    </contour>
    <contour>
      <point x="420.893" y="1048.11" type="line"/>
      <point x="16" y="889.88" type="line"/>
      <point x="74.9111" y="763.221" type="line"/>
      <point x="486.495" y="944.12" type="line"/>
    </contour>
  </outline>
</glyph>
<glyph name="lslash" format="2">
  <advance width="1124"/>
  <unicode hex="0142"/>
  <outline>
    <contour>
      <point x="819.386" y="209" type="line"/>
      <point x="185.386" y="209" type="line"/>
      <point x="185.386" y="59" type="line"/>
      <point x="819.386" y="59" type="line"/>
    </contour>
    <contour>
      <point x="592.227" y="1498" type="line"/>
      <point x="411.521" y="1498" type="line"/>
      <point x="411.521" y="136" type="line"/>
      <point x="592.227" y="136" type="line"/>
    </contour>
    <contour>
      <point x="446.457" y="1498" type="line"/>
      <point x="246.386" y="1498" type="line"/>
      <point x="246.386" y="1349" type="line"/>
      <point x="446.457" y="1349" type="line"/>
    </contour>
    <contour>
      <point x="897.771" y="1026.66" type="line"/>
      <point x="821.071" y="1157.5" type="line"/>
      <point x="112" y="798.434" type="line"/>
      <point x="188.7" y="667.592" type="line"/>
    </contour>
  </outline>
</glyph>
<glyph name="OE" format="2">
  <advance width="1124"/>
  <unicode hex="0152"/>
  <outline>
    <contour>
      <point x="262" y="1498" type="line"/>
      <point x="111" y="1498" type="line"/>
      <point x="111" y="50" type="line"/>
      <point x="262" y="50" type="line"/>
    </contour>
    <contour>
      <point x="704" y="1498" type="line"/>
      <point x="534.051" y="1498" type="line"/>
      <point x="534.051" y="50" type="line"/>
      <point x="704" y="50" type="line"/>
    </contour>
    <contour>
      <point x="880" y="1498" type="line"/>
      <point x="148" y="1498" type="line"/>
      <point x="148" y="1349" type="line"/>
      <point x="880" y="1349" type="line"/>
    </contour>
    <contour>
      <point x="888" y="200" type="line"/>
      <point x="150" y="200" type="line"/>
      <point x="150" y="50" type="line"/>
      <point x="888" y="50" type="line"/>
    </contour>
    <contour>
      <point x="850" y="834" type="line"/>
      <point x="656" y="834" type="line"/>
      <point x="656" y="684" type="line"/>
      <point x="850" y="684" type="line"/>
    </contour>
  </outline>
</glyph>
<glyph name="oe" format="2">
  <advance width="1124"/>
  <unicode hex="0153"/>
  <outline>
    <contour>
      <point x="824" y="620" type="line"/>
      <point x="632.015" y="620" type="line"/>
      <point x="632.015" y="471" type="line"/>
      <point x="824" y="471" type="line"/>
    </contour>
    <contour>
      <point x="999" y="973" type="line"/>
      <point x="849" y="973" type="line"/>
      <point x="849" y="470" type="line"/>
      <point x="999" y="470" type="line"/>
    </contour>
    <contour>
      <point x="253" y="973" type="line"/>
      <point x="103" y="973" type="line"/>
      <point x="103" y="50" type="line"/>
      <point x="253" y="50" type="line"/>
    </contour>
    <contour>
      <point x="636.579" y="973" type="line"/>
      <point x="465.421" y="973" type="line"/>
      <point x="465.421" y="50" type="line"/>
      <point x="636.579" y="50" type="line"/>
    </contour>
    <contour>
      <point x="859" y="973" type="line"/>
      <point x="158" y="973" type="line"/>
      <point x="158" y="823" type="line"/>
      <point x="859" y="823" type="line"/>
    </contour>
    <contour>
      <point x="999" y="200" type="line"/>
      <point x="149" y="200" type="line"/>
      <point x="149" y="50" type="line"/>
      <point x="999" y="50" type="line"/>
    </contour>
  </outline>
</glyph>
<glyph name="tcaron" format="2">
  <advance width="1124"/>
  <unicode hex="0165"/>
  <outline>
    <contour>
      <point x="525.287" y="1479" type="line"/>
      <point x="346.78" y="1479" type="line"/>
      <point x="346.78" y="50" type="line"/>
      <point x="525.287" y="50" type="line"/>
    </contour>
    <contour>
      <point x="886" y="199" type="line"/>
      <point x="527.651" y="199" type="line"/>
      <point x="527.651" y="50" type="line"/>
      <point x="886" y="50" type="line"/>
    </contour>
    <contour>
      <point x="849" y="973" type="line"/>
      <point x="70" y="973" type="line"/>
      <point x="70" y="824" type="line"/>
      <point x="849" y="824" type="line"/>
    </contour>
    <contour>
      <point x="802" y="1446" type="line"/>
      <point x="722" y="1446" type="line"/>
      <point x="722" y="1291" type="line"/>
      <point x="802" y="1291" type="line"/>
    </contour>
  </outline>
</glyph>
<glyph name="florin" format="2">
  <advance width="1124"/>
  <unicode hex="0192"/>
  <outline>
    <contour>
      <point x="593.232" y="973" type="line"/>
      <point x="413.048" y="973" type="line"/>
      <point x="413.048" y="-356" type="line"/>
      <point x="593.232" y="-356" type="line"/>
    </contour>
    <contour>
      <point x="957" y="973" type="line"/>
      <point x="487.524" y="973" type="line"/>
      <point x="487.524" y="831" type="line"/>
      <point x="957" y="831" type="line"/>
    </contour>
    <contour>
      <point x="860" y="534" type="line"/>
      <point x="229" y="534" type="line"/>
      <point x="229" y="381" type="line"/>
      <point x="860" y="381" type="line"/>
    </contour>
    <contour>
      <point x="595.634" y="-201" type="line"/>
      <point x="167" y="-201" type="line"/>
      <point x="167" y="-356" type="line"/>
      <point x="595.634" y="-356" type="line"/>
    </contour>
  </outline>
</glyph>
<glyph name="uni0237" format="2">
  <advance width="1074"/>
  <unicode hex="0237"/>
  <outline>
    <contour>
      <point x="776" y="973" type="line"/>
      <point x="627" y="973" type="line"/>
      <point x="627" y="-361" type="line"/>
      <point x="776" y="-361" type="line"/>
    </contour>
    <contour>
      <point x="677" y="-209" type="line"/>
      <point x="197" y="-209" type="line"/>
      <point x="197" y="-356" type="line"/>
      <point x="677" y="-356" type="line"/>
    </contour>
    <contour>
      <point x="348" y="-6" type="line"/>
      <point x="198" y="-6" type="line"/>
      <point x="198" y="-301" type="line"/>
      <point x="348" y="-301" type="line"/>
    </contour>
  </outline>
</glyph>
<glyph name="caron" format="2">
  <advance width="1024"/>
  <unicode hex="02C7"/>
  <outline>
    <contour>
      <point x="488.469" y="1108" type="line"/>
      <point x="513.417" y="1108" type="line"/>
      <point x="398.048" y="1403.95" type="line"/>
      <point x="366.903" y="1390.77" type="line"/>
    </contour>
    <contour>
      <point x="622.014" y="1405.48" type="line"/>
      <point x="505.688" y="1152.87" type="line"/>
      <point x="540.123" y="1123.94" type="line"/>
      <point x="653.82" y="1393.66" type="line"/>
    </contour>
  </outline>
</glyph>
<glyph name="uni02C9" format="2">
  <advance width="1024"/>
  <unicode hex="02C9"/>
  <outline>
    <contour>
      <point x="761" y="1605" type="line"/>
      <point x="251" y="1605" type="line"/>
      <point x="251" y="1573" type="line"/>
      <point x="761" y="1573" type="line"/>
    </contour>
  </outline>
</glyph>
<glyph name="uni02CA" format="2">
  <advance width="1024"/>
  <unicode hex="02CA"/>
  <outline>
    <contour>
      <point x="606.263" y="2124.04" type="line"/>
      <point x="561.921" y="2146.46" type="line"/>
      <point x="454.549" y="1936.67" type="line"/>
      <point x="498.267" y="1913.82" type="line"/>
    </contour>
  </outline>
</glyph>
<glyph name="uni02CB" format="2">
  <advance width="1024"/>
  <unicode hex="02CB"/>
  <outline>
    <contour>
      <point x="501.954" y="2120.28" type="line"/>
      <point x="454.597" y="2096.09" type="line"/>
      <point x="551.981" y="1904.57" type="line"/>
      <point x="598.468" y="1928.06" type="line"/>
    </contour>
  </outline>
</glyph>
<glyph name="breve" format="2">
  <advance width="1024"/>
  <unicode hex="02D8"/>
  <outline>
    <contour>
      <point x="796" y="1601.3" type="line"/>
      <point x="681" y="1533.7" type="line"/>
      <point x="681" y="1517.35" type="line"/>
      <point x="796" y="1564.74" type="line"/>
    </contour>
    <contour>
      <point x="631" y="1523" type="line"/>
      <point x="357" y="1523" type="line"/>
      <point x="357" y="1505" type="line"/>
      <point x="631" y="1505" type="line"/>
    </contour>
    <contour>
      <point x="307" y="1532.26" type="line"/>
      <point x="186" y="1590.28" type="line"/>
      <point x="186" y="1564.97" type="line"/>
      <point x="307" y="1516.85" type="line"/>
    </contour>
  </outline>
</glyph>
<glyph name="ogonek" format="2">
  <advance width="1024"/>
  <unicode hex="02DB"/>
  <outline>
    <contour>
      <point x="776" y="-313" type="line"/>
      <point x="284" y="-313" type="line"/>
      <point x="284" y="-381" type="line"/>
      <point x="776" y="-381" type="line"/>
    </contour>
    <contour>
      <point x="352" y="-25" type="line"/>
      <point x="284" y="-25" type="line"/>
      <point x="284" y="-381" type="line"/>
      <point x="352" y="-381" type="line"/>
    </contour>
    <contour>
      <point x="776" y="-25" type="line"/>
      <point x="284" y="-25" type="line"/>
      <point x="284" y="-96" type="line"/>
      <point x="776" y="-96" type="line"/>
    </contour>
  </outline>
</glyph>
<glyph name="tilde" format="2">
  <advance width="1024"/>
  <unicode hex="02DC"/>
  <outline>
    <contour>
      <point x="614" y="1536.99" type="line"/>
      <point x="384" y="1577.24" type="line"/>
      <point x="384" y="1549.01" type="line"/>
      <point x="614" y="1508.76" type="line"/>
    </contour>
    <contour>
      <point x="334" y="1575.06" type="line"/>
      <point x="197.187" y="1541.21" type="line"/>
      <point x="201.508" y="1513.13" type="line"/>
      <point x="334" y="1547.37" type="line"/>
    </contour>
    <contour>
      <point x="750.652" y="1622.29" type="line"/>
      <point x="664" y="1546.64" type="line"/>
      <point x="664" y="1530.17" type="line"/>
      <point x="755.798" y="1601.71" type="line"/>
    </contour>
  </outline>
</glyph>
<glyph name="hungarumlaut" format="2">
  <advance width="1024"/>
  <unicode hex="02DD"/>
  <outline>
    <contour>
      <point x="265" y="345" type="line"/>
      <point x="265" y="147" type="line"/>
      <point x="359" y="147" type="line"/>
      <point x="359" y="345" type="line"/>
    </contour>
    <contour>
      <point x="665" y="345" type="line"/>
      <point x="665" y="147" type="line"/>
      <point x="759" y="147" type="line"/>
      <point x="759" y="345" type="line"/>
    </contour>
  </outline>
</glyph>
<glyph name="gravecomb" format="2">
  <advance width="1024"/>
  <unicode hex="0300"/>
  <outline>
    <contour>
      <point x="501.954" y="2120.28" type="line"/>
      <point x="454.597" y="2096.09" type="line"/>
      <point x="551.981" y="1904.57" type="line"/>
      <point x="598.468" y="1928.06" type="line"/>
    </contour>
  </outline>
</glyph>
<glyph name="uni0302" format="2">
  <advance width="1024"/>
  <unicode hex="0302"/>
  <outline>
    <contour>
      <point x="381.994" y="1918.92" type="line"/>
      <point x="465.421" y="2133" type="line"/>
      <point x="458.48" y="2133" type="line"/>
      <point x="368.943" y="1924.36" type="line"/>
    </contour>
    <contour>
      <point x="491.988" y="2117.27" type="line"/>
      <point x="474.741" y="2102.99" type="line"/>
      <point x="560.07" y="1917.42" type="line"/>
      <point x="573.807" y="1922.46" type="line"/>
    </contour>
  </outline>
</glyph>
<glyph name="tildecomb" format="2">
  <advance width="1024"/>
  <unicode hex="0303"/>
  <outline>
    <contour>
      <point x="655" y="1932.98" type="line"/>
      <point x="355" y="1985.26" type="line"/>
      <point x="355" y="1937.02" type="line"/>
      <point x="655" y="1884.74" type="line"/>
    </contour>
    <contour>
      <point x="305" y="1983.17" type="line"/>
      <point x="120.182" y="1938.13" type="line"/>
      <point x="127.54" y="1890.06" type="line"/>
      <point x="305" y="1935.42" type="line"/>
    </contour>
    <contour>
      <point x="822.69" y="2046.14" type="line"/>
      <point x="705" y="1942.7" type="line"/>
      <point x="705" y="1906.16" type="line"/>
      <point x="832.797" y="2005.72" type="line"/>
    </contour>
  </outline>
</glyph>
<glyph name="uni0304" format="2">
  <advance width="1024"/>
  <unicode hex="0304"/>
  <outline>
    <contour>
      <point x="761" y="1605" type="line"/>
      <point x="251" y="1605" type="line"/>
      <point x="251" y="1573" type="line"/>
      <point x="761" y="1573" type="line"/>
    </contour>
  </outline>
</glyph>
<glyph name="uni0307" format="2">
  <advance width="1024"/>
  <unicode hex="0307"/>
  <outline>
    <contour>
      <point x="599" y="1763" type="line"/>
      <point x="425" y="1763" type="line"/>
      <point x="425" y="1611" type="line"/>
      <point x="599" y="1611" type="line"/>
    </contour>
  </outline>
</glyph>
<glyph name="uni0308" format="2">
  <advance width="1024"/>
  <unicode hex="0308"/>
  <outline>
    <contour>
      <point x="422" y="1713" type="line"/>
      <point x="360" y="1713" type="line"/>
      <point x="360" y="1662" type="line"/>
      <point x="422" y="1662" type="line"/>
    </contour>
    <contour>
      <point x="664" y="1713" type="line"/>
      <point x="602" y="1713" type="line"/>
      <point x="602" y="1662" type="line"/>
      <point x="664" y="1662" type="line"/>
    </contour>
  </outline>
</glyph>
<glyph name="uni030A" format="2">
  <advance width="1024"/>
  <unicode hex="030A"/>
  <outline>
    <contour>
      <point x="442" y="1781" type="line"/>
      <point x="640" y="1781" type="line"/>
      <point x="640" y="1601" type="line"/>
      <point x="442" y="1601" type="line"/>
    </contour>
    <contour>
      <point x="697" y="1822" type="line"/>
      <point x="387" y="1822" type="line"/>
      <point x="387" y="1562" type="line"/>
      <point x="697" y="1562" type="line"/>
    </contour>
  </outline>
</glyph>
<glyph name="uni030C" format="2">
  <advance width="1024"/>
  <unicode hex="030C"/>
  <outline>
    <contour>
      <point x="508.48" y="1374" type="line"/>
      <point x="515.421" y="1374" type="line"/>
      <point x="431.994" y="1588.08" type="line"/>
      <point x="418.943" y="1582.64" type="line"/>
    </contour>
    <contour>
      <point x="610.07" y="1589.58" type="line"/>
      <point x="524.741" y="1404.01" type="line"/>
      <point x="541.988" y="1389.73" type="line"/>
      <point x="623.807" y="1584.54" type="line"/>
    </contour>
  </outline>
</glyph>
<glyph name="dotbelowcomb" format="2">
  <advance width="1024"/>
  <unicode hex="0323"/>
  <outline>
    <contour>
      <point x="619" y="-229" type="line"/>
      <point x="405" y="-229" type="line"/>
      <point x="405" y="-426" type="line"/>
      <point x="619" y="-426" type="line"/>
    </contour>
  </outline>
</glyph>
<glyph name="uni0326" format="2">
  <advance width="1024"/>
  <unicode hex="0326"/>
  <outline>
    <contour>
      <point x="620" y="-25" type="line"/>
      <point x="422" y="-25" type="line"/>
      <point x="422" y="-205" type="line"/>
      <point x="620" y="-205" type="line"/>
    </contour>
    <contour>
      <point x="611.134" y="-239.083" type="line"/>
      <point x="505.503" y="-144.949" type="line"/>
      <point x="410.737" y="-370.62" type="line"/>
      <point x="510.419" y="-412.445" type="line"/>
    </contour>
  </outline>
</glyph>
<glyph name="uni0327" format="2">
  <advance width="1024"/>
  <unicode hex="0327"/>
  <outline>
    <contour>
      <point x="708" y="155" type="line"/>
      <point x="602" y="155" type="line"/>
      <point x="602" y="-119" type="line"/>
      <point x="708" y="-119" type="line"/>
    </contour>
    <contour>
      <point x="999" y="-313" type="line"/>
      <point x="603" y="-313" type="line"/>
      <point x="603" y="-381" type="line"/>
      <point x="999" y="-381" type="line"/>
    </contour>
    <contour>
      <point x="999" y="-25" type="line"/>
      <point x="897" y="-25" type="line"/>
      <point x="897" y="-347" type="line"/>
      <point x="999" y="-347" type="line"/>
    </contour>
    <contour>
      <point x="999" y="-25" type="line"/>
      <point x="603" y="-25" type="line"/>
      <point x="603" y="-131" type="line"/>
      <point x="999" y="-131" type="line"/>
    </contour>
  </outline>
</glyph>
<glyph name="uni0328" format="2">
  <advance width="1024"/>
  <unicode hex="0328"/>
  <outline>
    <contour>
      <point x="999" y="-313" type="line"/>
      <point x="507" y="-313" type="line"/>
      <point x="507" y="-381" type="line"/>
      <point x="999" y="-381" type="line"/>
    </contour>
    <contour>
      <point x="575" y="-25" type="line"/>
      <point x="507" y="-25" type="line"/>
      <point x="507" y="-381" type="line"/>
      <point x="575" y="-381" type="line"/>
    </contour>
    <contour>
      <point x="999" y="-25" type="line"/>
      <point x="507" y="-25" type="line"/>
      <point x="507" y="-96" type="line"/>
      <point x="999" y="-96" type="line"/>
    </contour>
  </outline>
</glyph>
<glyph name="uni0331" format="2">
  <advance width="1024"/>
  <unicode hex="0331"/>
  <outline>
    <contour>
      <point x="761" y="-195" type="line"/>
      <point x="251" y="-195" type="line"/>
      <point x="251" y="-223" type="line"/>
      <point x="761" y="-223" type="line"/>
    </contour>
  </outline>
</glyph>
